<svg width="530" height="389" viewBox="0 0 530 389" fill="none" xmlns="http://www.w3.org/2000/svg">
<g clip-path="url(#clip0_0_1)">
<path d="M234.779 339.994V338.86C237.028 338.86 239.31 338.813 241.565 338.723L241.61 339.857C239.34 339.947 237.042 339.993 234.779 339.994ZM227.95 339.863C225.688 339.774 223.395 339.636 221.132 339.46L221.221 338.33C223.469 338.508 225.748 338.643 227.994 338.731L227.95 339.863ZM248.427 339.445L248.337 338.315C250.582 338.136 252.853 337.907 255.088 337.635L255.224 338.761C252.974 339.033 250.688 339.263 248.427 339.444V339.445ZM214.335 338.785C212.08 338.514 209.804 338.195 207.57 337.835L207.749 336.716C209.968 337.073 212.229 337.39 214.469 337.659L214.335 338.785ZM261.987 337.805L261.806 336.686C264.024 336.326 266.271 335.916 268.479 335.465L268.706 336.575C266.48 337.028 264.219 337.443 261.986 337.805H261.987ZM200.849 336.615C198.623 336.161 196.382 335.66 194.183 335.121L194.452 334.02C196.635 334.556 198.863 335.055 201.073 335.504L200.849 336.615ZM275.372 335.075L275.101 333.975C277.291 333.435 279.496 332.842 281.655 332.219L281.97 333.308C279.796 333.938 277.575 334.534 275.372 335.077V335.075ZM187.582 333.358C185.401 332.727 183.206 332.045 181.058 331.328L181.416 330.252C183.549 330.963 185.729 331.642 187.896 332.269L187.582 333.358ZM288.491 331.268L288.132 330.191C290.267 329.476 292.417 328.708 294.522 327.906L294.924 328.965C292.804 329.772 290.64 330.546 288.49 331.266L288.491 331.268ZM174.604 329.028C172.483 328.223 170.345 327.362 168.252 326.468L168.695 325.425C170.775 326.312 172.898 327.168 175.006 327.968L174.604 329.028ZM301.243 326.415L300.799 325.372C302.866 324.487 304.942 323.549 306.969 322.584L307.454 323.608C305.415 324.58 303.326 325.524 301.243 326.415ZM162.011 323.65C159.956 322.673 157.897 321.641 155.889 320.584L156.415 319.581C158.409 320.631 160.455 321.656 162.495 322.626L162.011 323.65ZM313.552 320.548L313.025 319.545C315.017 318.494 317.012 317.392 318.955 316.264L319.52 317.245C317.564 318.378 315.556 319.49 313.55 320.547L313.552 320.548ZM149.897 317.273C147.927 316.131 145.958 314.937 144.046 313.724L144.651 312.767C146.55 313.972 148.505 315.158 150.463 316.293L149.897 317.273ZM325.355 313.703L324.75 312.746C326.646 311.543 328.548 310.281 330.401 308.997L331.044 309.929C329.178 311.222 327.264 312.492 325.355 313.703ZM138.344 309.942C136.474 308.647 134.608 307.299 132.799 305.935L133.478 305.028C135.275 306.383 137.128 307.722 138.986 309.008L138.344 309.942ZM336.581 305.929L335.902 305.022C337.696 303.671 339.491 302.26 341.239 300.829L341.955 301.707C340.196 303.147 338.388 304.567 336.583 305.927L336.581 305.929ZM127.422 301.709C125.666 300.272 123.916 298.779 122.22 297.271L122.969 296.421C124.656 297.918 126.395 299.402 128.139 300.829L127.422 301.709ZM347.153 297.274L346.403 296.424C348.087 294.928 349.765 293.377 351.389 291.814L352.172 292.632C350.538 294.204 348.849 295.765 347.153 297.272V297.274ZM117.196 292.628C115.565 291.057 113.939 289.429 112.365 287.789L113.18 287.003C114.744 288.633 116.359 290.25 117.979 291.809L117.196 292.628ZM357.004 287.793L356.189 287.007C357.748 285.383 359.299 283.702 360.794 282.012L361.642 282.764C360.135 284.464 358.576 286.157 357.005 287.793H357.004ZM107.73 282.762C106.222 281.059 104.733 279.305 103.302 277.553L104.178 276.836C105.598 278.577 107.078 280.319 108.576 282.01L107.73 282.762ZM366.07 277.552L365.194 276.835C366.623 275.084 368.033 273.283 369.386 271.483L370.291 272.163C368.93 273.977 367.509 275.79 366.071 277.551L366.07 277.552ZM99.0871 272.174C97.7243 270.36 96.3795 268.495 95.0913 266.63L96.0215 265.985C97.3013 267.838 98.637 269.69 99.9908 271.492L99.0871 272.174ZM374.292 266.611L373.362 265.966C374.646 264.105 375.907 262.196 377.113 260.292L378.069 260.898C376.856 262.817 375.585 264.739 374.292 266.612L374.292 266.611ZM91.3228 260.933C90.1109 259.018 88.9205 257.052 87.7855 255.089L88.7639 254.522C89.8915 256.472 91.0739 258.425 92.2773 260.327L91.3228 260.933ZM381.617 255.04L380.638 254.473C381.769 252.512 382.875 250.506 383.923 248.511L384.924 249.039C383.87 251.047 382.757 253.066 381.617 255.041L381.617 255.04ZM84.487 249.107C83.4334 247.102 82.4054 245.047 81.4333 243L82.4546 242.513C83.421 244.547 84.4423 246.587 85.4885 248.579L84.487 249.107ZM387.985 242.906L386.963 242.42C387.932 240.38 388.872 238.289 389.758 236.208L390.798 236.653C389.908 238.745 388.959 240.852 387.985 242.906ZM78.625 236.778C77.7343 234.69 76.8759 232.561 76.074 230.448L77.1309 230.045C77.9277 232.142 78.7805 234.259 79.6649 236.332L78.625 236.778ZM393.358 230.288L392.3 229.886C393.102 227.766 393.87 225.605 394.583 223.464L395.658 223.823C394.938 225.979 394.164 228.154 393.358 230.288ZM73.7752 224.002C73.0553 221.849 72.37 219.649 71.7394 217.469L72.8257 217.153C73.4529 219.319 74.1338 221.503 74.8491 223.642L73.7752 224.002ZM397.685 217.286L396.598 216.972C397.22 214.809 397.812 212.599 398.351 210.403L399.449 210.673C398.906 212.885 398.313 215.11 397.685 217.286ZM69.9671 210.857C69.4237 208.65 68.9187 206.405 68.4652 204.18L69.5735 203.954C70.0259 206.164 70.5253 208.395 71.0648 210.586L69.9671 210.857ZM400.943 203.995L399.834 203.768C400.281 201.559 400.69 199.311 401.048 197.082L402.165 197.262C401.804 199.508 401.393 201.773 400.943 203.996V203.995ZM67.2324 197.447C66.8699 195.21 66.5476 192.93 66.2739 190.671L67.3964 190.535C67.6678 192.779 67.9884 195.044 68.3487 197.266L67.2324 197.447ZM403.114 190.482L401.991 190.347C402.26 188.103 402.487 185.827 402.665 183.582L403.792 183.671C403.613 185.932 403.385 188.223 403.114 190.482ZM65.5924 183.862C65.4098 181.598 65.2706 179.3 65.179 177.029L66.31 176.983C66.4017 179.238 66.5396 181.522 66.7212 183.771L65.5924 183.862ZM404.203 176.84L403.072 176.796C403.16 174.538 403.205 172.251 403.205 169.996V169.62H404.336V169.993C404.336 172.265 404.29 174.566 404.201 176.84H404.203ZM66.1647 170.186H65.0337V169.995C65.0337 167.785 65.0767 165.545 65.1615 163.343L66.2925 163.387C66.2088 165.575 66.1658 167.799 66.1658 169.997L66.1647 170.186ZM403.055 162.826C402.961 160.576 402.821 158.293 402.637 156.039L403.764 155.947C403.949 158.213 404.091 160.513 404.185 162.779L403.055 162.826ZM66.6878 156.599L65.5602 156.511C65.7378 154.244 65.964 151.95 66.2315 149.699L67.3545 149.833C67.0887 152.069 66.8648 154.345 66.6878 156.599ZM401.949 149.275C401.676 147.041 401.353 144.776 400.987 142.545L402.104 142.362C402.47 144.608 402.796 146.888 403.069 149.138L401.949 149.275ZM68.291 143.099L67.1742 142.92C67.5327 140.676 67.9415 138.41 68.39 136.185L69.4984 136.411C69.0528 138.621 68.6467 140.872 68.2905 143.102L68.291 143.099ZM399.758 135.858C399.306 133.643 398.801 131.412 398.26 129.228L399.358 128.955C399.902 131.155 400.409 133.402 400.866 135.631L399.758 135.858ZM70.9755 129.772L69.8767 129.503C70.4145 127.297 71.0077 125.072 71.6326 122.887L72.7195 123.201C72.0958 125.372 71.5099 127.583 70.9755 129.773L70.9755 129.772ZM396.494 122.662C395.865 120.497 395.182 118.314 394.464 116.174L395.539 115.813C396.261 117.967 396.948 120.165 397.582 122.345L396.494 122.662ZM74.7282 116.709L73.6537 116.351C74.3697 114.193 75.1404 112.017 75.9452 109.883L77.0032 110.284C76.2046 112.403 75.439 114.565 74.7282 116.709ZM392.17 109.774C391.366 107.666 390.511 105.552 389.629 103.49L390.669 103.044C391.557 105.119 392.418 107.248 393.227 109.37L392.17 109.774ZM79.5389 103.959L78.4978 103.515C79.3868 101.421 80.3312 99.3162 81.3044 97.2592L82.3263 97.7443C81.3597 99.7882 80.4217 101.879 79.5389 103.959ZM386.838 97.313C385.87 95.2816 384.847 93.2416 383.798 91.2498L384.798 90.7206C385.855 92.7254 386.884 94.779 387.859 96.824L386.838 97.313ZM85.3625 91.6493L84.3609 91.1229C85.415 89.1096 86.5257 87.0889 87.6612 85.1163L88.6407 85.683C87.5131 87.6431 86.4098 89.6502 85.363 91.6499L85.3625 91.6493ZM380.514 85.3135C379.383 83.3625 378.199 81.411 376.994 79.5121L377.948 78.9041C379.162 80.816 380.353 82.7806 381.492 84.7446L380.514 85.3135ZM92.1558 79.8589L91.2001 79.2531C92.4137 77.331 93.6821 75.4078 94.9709 73.5373L95.9017 74.181C94.622 76.0396 93.3621 77.9498 92.1564 79.8595L92.1558 79.8589ZM373.243 73.8557C371.96 72.0033 370.622 70.1515 369.268 68.3535L370.173 67.6707C371.537 69.484 372.883 71.3449 374.174 73.2103L373.243 73.8557ZM99.871 68.6595L98.9662 67.9795C100.329 66.1617 101.747 64.3478 103.18 62.5872L104.057 63.304C102.633 65.0522 101.224 66.8547 99.8722 68.6601L99.871 68.6595ZM365.074 63.0133C363.648 61.2692 362.165 59.5307 360.67 57.8449L361.515 57.0918C363.021 58.7889 364.512 60.5393 365.949 62.2954L365.074 63.0133ZM108.458 58.1203L107.609 57.3694C109.111 55.6695 110.669 53.9757 112.239 52.3347L113.055 53.1195C111.495 54.7492 109.945 56.4322 108.456 58.1203H108.458ZM356.066 52.8549C354.5 51.2275 352.884 49.6125 351.259 48.0536L352.041 47.2354C353.676 48.805 355.303 50.4307 356.878 52.0689L356.066 52.8549ZM117.851 48.3075L117.067 47.4909C118.699 45.9173 120.386 44.3545 122.082 42.8443L122.833 43.6943C121.146 45.192 119.47 46.7446 117.848 48.308L117.851 48.3075ZM346.267 43.4473C344.577 41.9502 342.836 40.4689 341.093 39.0443L341.808 38.166C343.561 39.5997 345.314 41.0911 347.016 42.5984L346.267 43.4473ZM127.991 39.2823L127.274 38.4057C129.027 36.9653 130.836 35.5435 132.641 34.179L133.319 35.0857C131.527 36.4394 129.734 37.8521 127.991 39.2823ZM335.741 34.8528C333.937 33.4956 332.082 32.1589 330.229 30.8783L330.871 29.9455C332.737 31.2347 334.604 32.5805 336.421 33.9467L335.741 34.8528ZM138.816 31.1027L138.171 30.1711C140.038 28.8763 141.948 27.6047 143.856 26.3903L144.463 27.3469C142.568 28.5527 140.667 29.8158 138.815 31.1021L138.816 31.1027ZM324.561 27.1276C322.654 25.9206 320.697 24.7368 318.745 23.6086L319.31 22.6272C321.275 23.7605 323.245 24.9544 325.165 26.1693L324.561 27.1276ZM150.254 23.824L149.689 22.8436C151.644 21.7075 153.652 20.594 155.655 19.5349L156.183 20.5374C154.191 21.589 152.197 22.6946 150.254 23.824ZM312.791 20.3271C310.793 19.2782 308.747 18.256 306.707 17.2887L307.19 16.2642C309.244 17.2383 311.304 18.2673 313.315 19.3241L312.791 20.3271ZM162.232 17.4938L161.745 16.4705C163.785 15.4964 165.874 14.5495 167.954 13.6564L168.399 14.698C166.333 15.5848 164.258 16.5254 162.232 17.4938ZM300.502 14.4985C298.423 13.6139 296.299 12.7611 294.189 11.9621L294.589 10.9019C296.713 11.7055 298.852 12.5651 300.944 13.4553L300.502 14.4985ZM174.673 12.1554L174.27 11.0963C176.386 10.2877 178.55 9.50965 180.701 8.7883L181.061 9.86495C178.924 10.5806 176.775 11.3524 174.673 12.1554ZM287.778 9.68475C285.641 8.97473 283.46 8.29871 281.296 7.67595L281.609 6.58684C283.788 7.21356 285.982 7.89412 288.134 8.60924L287.778 9.68475ZM187.536 7.83292L187.22 6.74494C189.395 6.11085 191.615 5.51246 193.817 4.96677L194.088 6.06665C191.901 6.60778 189.697 7.20223 187.536 7.83292ZM274.737 5.93349C272.553 5.3997 270.326 4.90331 268.114 4.45735L268.337 3.34613C270.563 3.79493 272.804 4.29528 275.005 4.83247L274.737 5.93349ZM200.707 4.56898L200.481 3.4589C202.698 3.00557 204.958 2.58795 207.199 2.22189L207.381 3.34047C205.154 3.70256 202.909 4.11622 200.706 4.56784L200.707 4.56898ZM261.436 3.25094C259.212 2.89564 256.951 2.58058 254.715 2.31595L254.848 1.19057C257.098 1.45747 259.372 1.77423 261.614 2.13236L261.436 3.25094ZM214.097 2.38225L213.961 1.25744C216.211 0.98318 218.496 0.74745 220.756 0.566687L220.848 1.69603C218.603 1.87736 216.332 2.10969 214.097 2.38112V2.38225ZM247.963 1.65127C245.721 1.47617 243.439 1.34414 241.189 1.25857L241.232 0.125262C243.5 0.211394 245.793 0.344556 248.051 0.52192L247.963 1.65127ZM227.621 1.28011L227.574 0.146796C229.836 0.0532977 232.134 0.00399711 234.403 3.05176e-05V1.13334C232.15 1.13731 229.867 1.18661 227.62 1.27897L227.621 1.28011Z" fill="#35DDE3"/>
<path d="M340.019 381.522H129.647C119.132 381.51 110.569 373.435 110.557 363.52V76.085C110.569 66.1693 119.133 58.0939 129.646 58.0829H340.019C350.534 58.0939 359.097 66.1693 359.108 76.0847V363.52C359.096 373.435 350.533 381.511 340.019 381.522Z" fill="#3F3D56"/>
<path d="M342.109 364.22H127.557C124.156 364.216 121.386 361.753 121.382 358.728V82.7805C121.386 79.7552 124.156 77.2916 127.557 77.288H342.109C345.509 77.2916 348.279 79.7552 348.283 82.7802V358.727C348.279 361.753 345.509 364.216 342.109 364.22Z" fill="white"/>
<path d="M164.982 188.804C164.999 188.608 165.088 188.427 165.232 188.294C165.376 188.162 165.564 188.088 165.759 188.088C165.955 188.088 166.143 188.162 166.287 188.294C166.431 188.427 166.52 188.608 166.537 188.804V195.751H164.982V188.804Z" fill="white"/>
<path d="M439.996 294.352C439.475 294.727 438.877 294.982 438.246 295.099C437.615 295.215 436.967 295.19 436.346 295.025C435.795 294.878 435.279 294.624 434.826 294.277C434.372 293.93 433.992 293.497 433.706 293.003C433.42 292.509 433.234 291.963 433.158 291.397C433.083 290.83 433.119 290.255 433.266 289.703C433.281 289.645 433.297 289.588 433.315 289.532C433.379 289.327 433.459 289.128 433.553 288.936L425.018 250.536C424.889 250.096 424.848 249.635 424.898 249.18C424.947 248.725 425.086 248.284 425.305 247.882C425.525 247.48 425.822 247.126 426.178 246.839C426.535 246.553 426.945 246.339 427.384 246.211C427.822 246.084 428.282 246.044 428.737 246.094C429.191 246.145 429.631 246.285 430.031 246.506C430.432 246.727 430.785 247.025 431.07 247.383C431.355 247.741 431.567 248.151 431.694 248.592L431.7 248.614L439.758 287.132C440.363 287.509 440.866 288.031 441.223 288.649C441.579 289.268 441.778 289.965 441.802 290.679C441.825 291.393 441.673 292.102 441.358 292.742C441.043 293.383 440.575 293.936 439.996 294.353L439.996 294.352Z" fill="#FEB8B8"/>
<path d="M451.331 376.742H446.701L444.496 358.848H451.329L451.331 376.742Z" fill="#A0616A"/>
<path d="M452.512 381.24H437.583V381.051C437.583 379.507 438.195 378.026 439.285 376.934C440.374 375.842 441.852 375.229 443.393 375.228H452.511L452.512 381.24Z" fill="#A0616A"/>
<path d="M451.331 376.742H446.701L444.496 358.848H451.329L451.331 376.742Z" fill="#FEB8B8"/>
<path d="M452.512 381.24H437.583V381.051C437.583 379.507 438.195 378.026 439.285 376.934C440.374 375.842 441.852 375.229 443.393 375.228H452.511L452.512 381.24Z" fill="#2F2E41"/>
<path d="M404.915 376.596L400.51 375.167L403.91 357.463L410.414 359.57L404.915 376.596Z" fill="#A0616A"/>
<path d="M404.657 381.238L390.455 376.634L390.512 376.454C390.986 374.984 392.024 373.764 393.396 373.062C394.768 372.359 396.362 372.231 397.828 372.706L406.503 375.518L404.657 381.238Z" fill="#A0616A"/>
<path d="M404.915 376.596L400.51 375.167L403.91 357.463L410.414 359.57L404.915 376.596Z" fill="#FEB8B8"/>
<path d="M404.657 381.238L390.455 376.634L390.512 376.454C390.986 374.984 392.024 373.764 393.396 373.062C394.768 372.359 396.362 372.231 397.828 372.706L406.503 375.518L404.657 381.238Z" fill="#2F2E41"/>
<path d="M424.987 240.172C429.301 240.172 432.798 236.667 432.798 232.345C432.798 228.022 429.301 224.518 424.987 224.518C420.673 224.518 417.177 228.022 417.177 232.345C417.177 236.667 420.673 240.172 424.987 240.172Z" fill="#FEB8B8"/>
<path d="M436.185 262.772C437.272 258.729 432.297 246.05 431.891 244.442C429.952 243.994 425.458 244.853 422.696 244.283C418.768 247.57 415.644 252.269 413.485 254.497C411.24 256.814 409.793 258.385 412.113 263.809C413.825 268.079 414.572 272.677 414.3 277.271L416.174 293.864C416.174 293.864 408.364 315.779 408.989 330.494L401.803 366.497C402.467 367.572 403.507 368.36 404.72 368.707C405.933 369.054 407.232 368.936 408.363 368.376C408.363 368.376 418.673 349.903 417.736 336.443L428.984 311.396C428.984 311.396 436.794 335.19 438.982 337.381L444.606 371.193C444.606 371.193 449.917 372.758 452.416 371.193C452.416 371.193 453.353 338.634 448.042 333.311C448.042 333.311 442.731 310.77 443.981 304.821C445.23 298.873 445.543 289.794 436.17 281.654C436.17 281.654 436.264 281.697 433.358 276.332L436.185 262.772Z" fill="#2F2E41"/>
<path d="M429.062 220.248C428.624 220.249 428.187 220.292 427.758 220.378C426.982 220 426.132 219.804 425.269 219.803H425.043C420.684 219.803 417.151 223.755 417.151 228.63H418.612L418.848 226.831L419.193 228.63H420.41C420.031 230.073 419.841 231.558 419.844 233.05V242.038H422.049L423.328 238.708L423.009 242.038H437.203L438.365 239.011L438.074 242.038H439.672V234.983C439.672 226.845 434.921 220.248 429.062 220.248Z" fill="#2F2E41"/>
<path d="M413.472 298.8C412.838 298.895 412.19 298.849 411.576 298.664C410.962 298.479 410.396 298.159 409.919 297.729C409.496 297.347 409.152 296.884 408.907 296.368C408.662 295.852 408.52 295.293 408.491 294.723C408.461 294.152 408.544 293.581 408.735 293.043C408.926 292.504 409.221 292.009 409.602 291.584C409.642 291.54 409.683 291.497 409.724 291.455C409.875 291.302 410.036 291.161 410.208 291.033L420.105 252.963C420.282 252.056 420.812 251.257 421.577 250.742C422.342 250.227 423.28 250.037 424.185 250.215C425.09 250.393 425.887 250.924 426.401 251.691C426.915 252.457 427.104 253.398 426.927 254.304L426.926 254.31L416.55 292.265C416.916 292.878 417.127 293.572 417.162 294.285C417.197 294.999 417.057 295.71 416.752 296.356C416.448 297.002 415.99 297.563 415.418 297.989C414.845 298.415 414.177 298.693 413.472 298.799V298.8Z" fill="#FEB8B8"/>
<path d="M234.551 71.8662C233.528 71.8614 232.539 71.5014 231.751 70.8476C230.963 70.1938 230.426 69.2866 230.231 68.2806C230.037 67.2745 230.196 66.2319 230.682 65.3302C231.168 64.4286 231.951 63.7237 232.898 63.3357C233.844 62.9477 234.896 62.9006 235.873 63.2023C236.851 63.504 237.693 64.136 238.258 64.9906C238.823 65.8451 239.074 66.8693 238.969 67.8888C238.865 68.9083 238.411 69.8599 237.685 70.5816C237.272 70.9915 236.783 71.316 236.245 71.5364C235.708 71.7569 235.132 71.8689 234.551 71.8662Z" fill="white"/>
<path d="M468.973 381.988H0.630935C0.551469 381.996 0.471058 381.988 0.394944 381.964C0.31883 381.939 0.248727 381.899 0.189197 381.845C0.129666 381.792 0.0820508 381.726 0.0494521 381.653C0.0168534 381.58 0 381.501 0 381.421C0 381.341 0.0168534 381.262 0.0494521 381.188C0.0820508 381.115 0.129666 381.05 0.189197 380.996C0.248727 380.943 0.31883 380.903 0.394944 380.878C0.471058 380.854 0.551469 380.845 0.630935 380.854H468.973C469.052 380.845 469.132 380.854 469.209 380.878C469.285 380.903 469.355 380.943 469.414 380.996C469.474 381.05 469.521 381.115 469.554 381.188C469.587 381.262 469.603 381.341 469.603 381.421C469.603 381.501 469.587 381.58 469.554 381.653C469.521 381.726 469.474 381.792 469.414 381.845C469.355 381.899 469.285 381.939 469.209 381.964C469.132 381.988 469.052 381.996 468.973 381.988Z" fill="#35DDE3"/>
<path d="M165.771 205.89C167.02 205.89 168.033 204.875 168.033 203.623C168.033 202.372 167.02 201.357 165.771 201.357C164.522 201.357 163.509 202.372 163.509 203.623C163.509 204.875 164.522 205.89 165.771 205.89Z" fill="white"/>
<path d="M169.24 237.538C169.262 237.932 169.204 238.326 169.07 238.696C168.935 239.066 168.726 239.405 168.456 239.691C168.186 239.978 167.86 240.206 167.499 240.362C167.138 240.518 166.749 240.598 166.355 240.598C165.962 240.598 165.573 240.518 165.212 240.362C164.851 240.206 164.525 239.978 164.255 239.691C163.985 239.405 163.776 239.066 163.641 238.696C163.507 238.326 163.449 237.932 163.471 237.538C163.471 235.848 166.186 234.138 166.186 231.077C166.186 229.481 169.24 235.848 169.24 237.538Z" fill="white"/>
<path d="M237.326 141.291C237.639 141.291 237.892 141.038 237.892 140.725C237.892 140.412 237.639 140.158 237.326 140.158C237.014 140.158 236.761 140.412 236.761 140.725C236.761 141.038 237.014 141.291 237.326 141.291Z" fill="#6C63FF"/>
</g>
<g clip-path="url(#clip1_0_1)">
<path d="M438.364 91.1344L436.486 91.379L449.079 43.9892C450.007 40.8248 450.158 37.4824 449.519 34.2468C448.965 31.6031 447.595 29.2014 445.603 27.3826C443.516 25.564 440.959 24.3741 438.227 23.9501C434.899 23.4334 431.502 23.5859 428.234 24.3988L342.649 43.9414C339.662 44.668 336.803 45.8474 334.171 47.4387C331.308 49.1458 328.645 51.17 326.233 53.4732C323.751 55.8219 321.524 58.4266 319.587 61.244C317.696 63.9709 316.153 66.9257 314.997 70.0386L225.451 316.993C223.962 321.054 222.995 325.288 222.572 329.593C222.181 333.416 222.366 337.275 223.121 341.042C223.752 344.316 225.069 347.417 226.986 350.141C228.744 352.618 231.221 354.491 234.079 355.505L324.504 386.718C328.521 388.089 332.833 388.347 336.984 387.463C341.421 386.494 345.594 384.567 349.213 381.816C353.277 378.754 356.772 374.999 359.538 370.722C362.6 366.023 364.889 360.861 366.315 355.433L426.939 127.297L428.841 127.145L438.364 91.1344Z" fill="#2F2E41"/>
<path d="M431.823 88.5107L429.945 88.7554L442.537 41.3655C443.465 38.2011 443.616 34.8587 442.978 31.6231C442.424 28.9794 441.053 26.5777 439.061 24.7589C436.974 22.9403 434.418 21.7504 431.685 21.3264C428.358 20.8097 424.961 20.9622 421.692 21.7751L336.108 41.3177C333.121 42.0444 330.262 43.2237 327.629 44.8151C324.766 46.5221 322.104 48.5463 319.691 50.8495C317.21 53.1982 314.982 55.8029 313.046 58.6203C311.154 61.3473 309.612 64.302 308.456 67.4149L218.909 314.369C217.421 318.43 216.453 322.664 216.031 326.97C215.639 330.792 215.824 334.652 216.58 338.419C217.211 341.692 218.528 344.793 220.445 347.517C222.203 349.994 224.679 351.867 227.537 352.881L317.962 384.094C321.979 385.465 326.291 385.723 330.442 384.839C334.879 383.87 339.053 381.943 342.672 379.192C346.736 376.131 350.231 372.375 352.996 368.099C356.059 363.4 358.347 358.237 359.774 352.809L420.398 124.674L422.3 124.521L431.823 88.5107Z" fill="#3F3D56"/>
<path d="M420.936 27.9597L408.356 30.7231C408.493 31.8145 408.385 32.9228 408.038 33.9666C407.646 35.1875 407.078 36.3442 406.351 37.3997C404.715 39.796 402.532 41.7657 399.984 43.145C399.678 43.3076 399.374 43.4578 399.071 43.5956C398.768 43.7333 398.465 43.8584 398.162 43.9708C397.86 44.0832 397.56 44.1824 397.262 44.2686C396.964 44.3547 396.67 44.4273 396.379 44.4863L347.192 54.4728C346.279 54.6854 345.329 54.6746 344.421 54.4413C343.69 54.2446 343.046 53.8093 342.59 53.2042C342.129 52.5544 341.87 51.7836 341.842 50.9872C341.805 49.9713 341.965 48.9578 342.314 48.0034C342.401 47.7458 342.501 47.4865 342.612 47.2255C342.724 46.9644 342.846 46.7033 342.977 46.4423C343.108 46.1799 343.251 45.9189 343.406 45.6591C343.561 45.3994 343.724 45.1398 343.896 44.8805L334.582 46.9264C332.339 47.4538 330.191 48.3255 328.213 49.5107C326.052 50.7871 324.043 52.3054 322.224 54.0366C320.348 55.8052 318.666 57.7692 317.206 59.8953C315.783 61.9497 314.625 64.1774 313.762 66.5247L224.384 315.625C223.272 318.686 222.558 321.878 222.26 325.122C221.984 327.985 222.147 330.874 222.742 333.688C223.238 336.12 224.25 338.417 225.71 340.422C227.048 342.24 228.914 343.6 231.053 344.315L322.143 373.987C325.149 374.954 328.357 375.098 331.437 374.405C334.716 373.652 337.797 372.203 340.471 370.155C343.461 367.885 346.036 365.11 348.08 361.956C350.342 358.492 352.039 354.689 353.109 350.689L436.337 42.7448C437.035 40.3942 437.164 37.9104 436.714 35.4995C436.323 33.5238 435.327 31.7199 433.864 30.3394C432.331 28.9592 430.438 28.0444 428.406 27.7019C425.924 27.284 423.384 27.3717 420.936 27.9597Z" fill="white"/>
<path fill-rule="evenodd" clip-rule="evenodd" d="M424.948 32.7667L424.92 32.3372L423.447 32.4361L423.476 32.8657L422.003 32.9646L422.433 39.4084L426.852 39.1116L426.421 32.6678L424.948 32.7667Z" fill="#343A40"/>
<path fill-rule="evenodd" clip-rule="evenodd" d="M411.143 40.1641L418.016 39.7026L417.557 32.8292L411.143 40.1641Z" fill="#343A40"/>
<path fill-rule="evenodd" clip-rule="evenodd" d="M409.812 34.8374L405.743 40.5276L400.954 35.4335C402.125 34.421 403.622 33.7667 405.285 33.655C406.947 33.5434 408.518 33.9912 409.812 34.8374Z" fill="#343A40"/>
<g opacity="0.9">
<path d="M338.951 53.5702L339.237 57.8409L338.532 57.8882L338.303 54.4535L337.283 54.8773L337.244 54.2956L338.866 53.5759L338.951 53.5702ZM343.531 56.9888L343.569 57.55L340.716 57.7416L340.683 57.2593L341.968 55.655C342.108 55.4733 342.218 55.3171 342.298 55.1865C342.377 55.0559 342.431 54.9397 342.459 54.838C342.49 54.7341 342.502 54.6345 342.495 54.539C342.486 54.4045 342.453 54.2883 342.396 54.1904C342.34 54.0904 342.263 54.0143 342.163 53.9623C342.064 53.9083 341.946 53.8859 341.809 53.895C341.651 53.9056 341.521 53.9486 341.419 54.024C341.316 54.0994 341.241 54.1994 341.195 54.3239C341.148 54.4464 341.13 54.5847 341.14 54.7386L340.436 54.7859C340.419 54.5384 340.461 54.3086 340.56 54.0964C340.659 53.8822 340.812 53.7075 341.018 53.5723C341.225 53.4351 341.479 53.3564 341.781 53.3361C342.065 53.317 342.31 53.3485 342.515 53.4307C342.72 53.5128 342.88 53.6381 342.995 53.8066C343.112 53.9749 343.179 54.1789 343.195 54.4186C343.204 54.5511 343.191 54.6841 343.157 54.8175C343.123 54.951 343.07 55.0857 342.999 55.2216C342.93 55.3555 342.846 55.4913 342.747 55.629C342.649 55.7649 342.539 55.9033 342.42 56.0445L341.567 57.1207L343.531 56.9888ZM344.144 57.159C344.137 57.0499 344.168 56.9558 344.237 56.8768C344.306 56.7958 344.404 56.751 344.531 56.7425C344.659 56.7339 344.762 56.7652 344.839 56.8363C344.918 56.9054 344.961 56.9945 344.969 57.1036C344.976 57.2128 344.945 57.3068 344.876 57.3859C344.809 57.4648 344.711 57.5085 344.582 57.5172C344.456 57.5257 344.353 57.4954 344.274 57.4263C344.195 57.3572 344.152 57.2681 344.144 57.159ZM343.981 54.6683C343.974 54.5591 344.004 54.465 344.074 54.386C344.143 54.305 344.24 54.2603 344.367 54.2518C344.496 54.2432 344.599 54.2744 344.676 54.3456C344.755 54.4147 344.798 54.5038 344.805 54.6129C344.812 54.722 344.782 54.8161 344.712 54.8951C344.645 54.974 344.547 55.0178 344.419 55.0264C344.292 55.0349 344.189 55.0047 344.11 54.9356C344.031 54.8665 343.988 54.7774 343.981 54.6683ZM346.36 54.9049L346.781 54.8766C346.945 54.8656 347.078 54.8283 347.182 54.7645C347.287 54.7007 347.363 54.6173 347.409 54.5144C347.455 54.4115 347.474 54.2957 347.465 54.1671C347.456 54.0326 347.424 53.9193 347.369 53.8271C347.316 53.7328 347.238 53.6626 347.137 53.6165C347.038 53.5703 346.915 53.5522 346.767 53.5621C346.642 53.5705 346.531 53.6034 346.433 53.6609C346.337 53.7163 346.262 53.7917 346.21 53.8873C346.158 53.9808 346.136 54.09 346.144 54.2147L345.436 54.2622C345.421 54.0361 345.467 53.8314 345.575 53.648C345.682 53.4647 345.834 53.3164 346.032 53.2033C346.232 53.0881 346.461 53.0218 346.718 53.0046C346.993 52.9861 347.235 53.0158 347.446 53.0937C347.659 53.1694 347.828 53.2931 347.955 53.4647C348.082 53.6362 348.155 53.8545 348.172 54.1196C348.18 54.2404 348.16 54.3651 348.112 54.4936C348.064 54.6221 347.988 54.7417 347.884 54.8525C347.779 54.9613 347.647 55.0534 347.485 55.1288C347.324 55.2023 347.134 55.2464 346.916 55.261L346.386 55.2966L346.36 54.9049ZM346.397 55.4544L346.371 55.0686L346.9 55.033C347.15 55.0163 347.364 55.0312 347.543 55.0779C347.725 55.1245 347.874 55.1957 347.992 55.2915C348.11 55.3854 348.199 55.4959 348.258 55.6231C348.319 55.7501 348.355 55.8867 348.365 56.0329C348.378 56.2316 348.354 56.4114 348.292 56.5721C348.232 56.7308 348.141 56.8681 348.017 56.9841C347.894 57.1 347.746 57.1912 347.575 57.2575C347.405 57.3237 347.218 57.3637 347.013 57.3774C346.83 57.3897 346.653 57.3762 346.482 57.3368C346.311 57.2974 346.156 57.2324 346.017 57.1419C345.877 57.0495 345.764 56.9308 345.676 56.786C345.589 56.6391 345.54 56.4663 345.526 56.2675L346.231 56.2202C346.239 56.3469 346.276 56.457 346.341 56.5505C346.408 56.6419 346.497 56.7113 346.608 56.7587C346.72 56.8059 346.847 56.8248 346.987 56.8154C347.135 56.8055 347.261 56.7706 347.365 56.7108C347.468 56.6509 347.545 56.5675 347.595 56.4604C347.646 56.3532 347.667 56.2265 347.657 56.0804C347.646 55.9147 347.605 55.7824 347.534 55.6834C347.463 55.5845 347.366 55.5146 347.244 55.4739C347.122 55.4312 346.98 55.4153 346.818 55.4262L346.397 55.4544ZM351.707 54.5076L351.754 55.2034C351.776 55.5366 351.762 55.8233 351.711 56.0636C351.663 56.3018 351.582 56.4981 351.469 56.6525C351.356 56.8069 351.216 56.9239 351.049 57.0036C350.884 57.0832 350.696 57.1301 350.486 57.1442C350.318 57.1555 350.161 57.1445 350.014 57.1113C349.868 57.078 349.735 57.0194 349.614 56.9355C349.493 56.8517 349.387 56.7404 349.295 56.6017C349.206 56.4609 349.132 56.2906 349.073 56.091C349.017 55.8912 348.98 55.6578 348.962 55.3908L348.915 54.6951C348.893 54.3599 348.907 54.0751 348.958 53.8407C349.009 53.6044 349.091 53.41 349.204 53.2575C349.317 53.1031 349.456 52.9871 349.621 52.9094C349.788 52.8317 349.977 52.7857 350.188 52.7716C350.357 52.7602 350.514 52.7711 350.66 52.8045C350.806 52.8357 350.939 52.8924 351.058 52.9744C351.179 53.0563 351.285 53.1667 351.374 53.3056C351.466 53.4423 351.539 53.6106 351.596 53.8104C351.652 54.0082 351.689 54.2407 351.707 54.5076ZM351.056 55.35L350.996 54.4497C350.984 54.2802 350.965 54.1317 350.936 54.0044C350.908 53.8752 350.872 53.767 350.827 53.68C350.784 53.5909 350.732 53.52 350.672 53.4673C350.611 53.4126 350.544 53.375 350.47 53.3545C350.396 53.3321 350.314 53.3239 350.225 53.3299C350.116 53.3372 350.02 53.3652 349.937 53.4138C349.854 53.4605 349.786 53.5316 349.734 53.6271C349.681 53.7227 349.645 53.8465 349.624 53.9986C349.604 54.1487 349.602 54.3299 349.616 54.5424L349.676 55.4427C349.687 55.6142 349.707 55.7646 349.736 55.8938C349.764 56.0231 349.8 56.1332 349.846 56.2241C349.891 56.3131 349.943 56.3859 350.001 56.4427C350.062 56.4974 350.129 56.5359 350.203 56.5584C350.279 56.5807 350.36 56.5889 350.448 56.583C350.559 56.5755 350.656 56.5475 350.739 56.4988C350.822 56.4502 350.889 56.3772 350.942 56.2797C350.994 56.1803 351.029 56.0536 351.048 55.8996C351.067 55.7457 351.07 55.5625 351.056 55.35Z" fill="#343A40"/>
</g>
</g>
<defs>
<clipPath id="clip0_0_1">
<rect width="469.604" height="381.991" fill="white"/>
</clipPath>
<clipPath id="clip1_0_1">
<rect width="392.504" height="367.973" fill="white" transform="translate(136.676 21.0267)"/>
</clipPath>
</defs>
</svg>
