<svg width="20" height="26" viewBox="0 0 20 26" fill="none" xmlns="http://www.w3.org/2000/svg">
<path d="M13.8297 16.0989V1.98901C13.8297 1.46154 13.3681 1 12.8407 1H2.48901C1.96154 1 1.5 1.46154 1.5 1.98901V22.2967C1.5 22.8242 1.96154 23.3516 2.48901 23.3516H12.8407C13.3681 23.3516 13.8297 22.8901 13.8297 22.2967V15.7033V16.0989Z" stroke="#343A40" stroke-width="1.4933" stroke-miterlimit="10" stroke-linecap="round" stroke-linejoin="round"/>
<path d="M12.3797 2.84602V18.2087C12.3797 18.4724 12.116 18.7361 11.8523 18.7361H3.54456C3.28083 18.7361 3.01709 18.4724 3.01709 18.2087V2.84602C3.01709 2.58229 3.28083 2.31855 3.54456 2.31855H11.8523C12.116 2.25262 12.3797 2.51635 12.3797 2.84602Z" fill="#365C7D"/>
<path d="M11.5214 24.9993L5.05985 22.296C4.46644 22.0323 4.13677 21.307 4.40051 20.6477L4.46645 20.4499C4.73018 19.8565 5.45546 19.5268 6.1148 19.7905L9.08183 21.0433L7.96095 18.34L5.65326 12.7356C5.38952 12.0762 5.71919 11.351 6.3126 11.1532L6.37853 11.0872C7.03787 10.8235 7.76315 11.1532 7.96095 11.7466L9.74117 16.0323L14.4225 14.9773C14.4225 14.9773 15.939 14.6477 16.7302 16.5598L18.4445 21.9664" fill="white"/>
<path d="M11.5214 24.9993L5.05985 22.296C4.46644 22.0323 4.13677 21.307 4.40051 20.6477L4.46645 20.4499C4.73018 19.8565 5.45546 19.5268 6.1148 19.7905L9.08183 21.0433L7.96095 18.34L5.65326 12.7356C5.38952 12.0762 5.71919 11.351 6.3126 11.1532L6.37853 11.0872C7.03787 10.8235 7.76315 11.1532 7.96095 11.7466L9.74117 16.0323L14.4225 14.9773C14.4225 14.9773 15.939 14.6477 16.7302 16.5598L18.4445 21.9664" stroke="#343A40" stroke-width="1.4933" stroke-miterlimit="10" stroke-linecap="round" stroke-linejoin="round"/>
</svg>
