<svg width="18" height="18" viewBox="0 0 18 18" fill="none" xmlns="http://www.w3.org/2000/svg">
<path d="M16.2558 2.92246L15.0775 1.74413C14.7516 1.4183 14.2241 1.4183 13.8991 1.74413L5.07748 10.5658C4.92081 10.7216 4.83331 10.9341 4.83331 11.155V13.1666H6.84498C7.06581 13.1666 7.27831 13.0791 7.43415 12.9225L16.2558 4.1008C16.5816 3.7758 16.5816 3.2483 16.2558 2.92246V2.92246Z" stroke="#365C7D" stroke-width="1.5" stroke-linecap="round" stroke-linejoin="round"/>
<path d="M14.7583 5.5917L12.4083 3.2417" stroke="#365C7D" stroke-width="1.5" stroke-linecap="round" stroke-linejoin="round"/>
<path d="M16.5 8.16667V14.8333C16.5 15.7542 15.7542 16.5 14.8333 16.5H3.16667C2.24583 16.5 1.5 15.7542 1.5 14.8333V3.16667C1.5 2.24583 2.24583 1.5 3.16667 1.5H9.83333" stroke="#365C7D" stroke-width="1.5" stroke-linecap="round" stroke-linejoin="round"/>
</svg>
