<svg width="18" height="17" viewBox="0 0 18 17" fill="none" xmlns="http://www.w3.org/2000/svg">
<path d="M8.55763 17C3.87156 17 0.0576172 13.1861 0.0576172 8.49997C0.0576172 3.81389 3.87156 0 8.55763 0C13.2437 0 17.0576 3.81389 17.0576 8.49997C17.0576 13.1861 13.2437 17 8.55763 17ZM8.55763 0.913673C4.37455 0.913673 0.971316 4.31688 0.971316 8.49997C0.971316 12.6831 4.37455 16.0863 8.55763 16.0863C12.7407 16.0863 16.1439 12.6831 16.1439 8.49997C16.1439 4.31688 12.7407 0.913673 8.55763 0.913673Z" fill="#35dde3"/>
<path fillRule="evenodd" clipRule="evenodd" d="M7.2232 8.54456V13.4706C7.2232 13.5421 7.28087 13.5998 7.35239 13.5998H9.18207C9.2536 13.5998 9.31129 13.5421 9.31129 13.4706V8.46378H10.638C10.7049 8.46378 10.7602 8.41302 10.7649 8.34611L10.8918 6.83714C10.8987 6.76331 10.8387 6.69874 10.7649 6.69874H9.31129V5.62813C9.31129 5.37664 9.51433 5.1736 9.76582 5.1736H10.7879C10.8595 5.1736 10.9171 5.11591 10.9171 5.04438V3.53541C10.9171 3.46389 10.8595 3.40625 10.7879 3.40625H9.05978C8.04689 3.40625 7.22551 4.22763 7.22551 5.24052V6.69412H6.31184C6.24031 6.69412 6.18262 6.75176 6.18262 6.82328V8.33225C6.18262 8.40378 6.24031 8.46147 6.31184 8.46147H7.22551V8.54225L7.2232 8.54456Z" fill="#35dde3"/>
</svg>
