<svg width="36" height="36" viewBox="0 0 36 36" fill="none" xmlns="http://www.w3.org/2000/svg">
<path d="M13.9 15.5H1.59998C0.699976 15.5 0 14.8 0 13.9V1.6C0 0.7 0.699976 0 1.59998 0H13.9C14.8 0 15.5 0.7 15.5 1.6V13.9C15.5 14.8 14.8 15.5 13.9 15.5Z" fill="#FF6600"/>
<path d="M33.9 14.5H21.6C21.2523 14.5 21 14.2477 21 13.9V1.6C21 1.25229 21.2523 1 21.6 1H33.9C34.2477 1 34.5 1.25229 34.5 1.6V13.9C34.5 14.2477 34.2477 14.5 33.9 14.5Z" stroke="#1F3447" strokeWidth="2" strokeMiterlimit="10"/>
<path d="M13.9 34.5H1.59998C1.25228 34.5 1 34.2477 1 33.9V21.6C1 21.2523 1.25228 21 1.59998 21H13.9C14.2477 21 14.5 21.2523 14.5 21.6V33.9C14.5 34.2477 14.2477 34.5 13.9 34.5Z" stroke="#1F3447" strokeWidth="2" strokeMiterlimit="10"/>
<path d="M33.4 35.5H21.1C20.2 35.5 19.5 34.8 19.5 33.9V21.6C19.5 20.7 20.2 20 21.1 20H33.4C34.3 20 35 20.7 35 21.6V33.9C35 34.8 34.3 35.5 33.4 35.5Z" fill="#FF6600"/>
</svg>
