<svg width="24" height="24" viewBox="0 0 24 24" fill="none" xmlns="http://www.w3.org/2000/svg">
<path d="M9.39718 10.4789H1.08167C0.473223 10.4789 0 10.0056 0 9.39718V1.08169C0 0.47324 0.473223 0 1.08167 0H9.39718C10.0056 0 10.4789 0.47324 10.4789 1.08169V9.39718C10.4789 10.0056 10.0056 10.4789 9.39718 10.4789Z" fill="#365C7D"/>
<path d="M22.9182 9.47888H14.6027C14.5813 9.47888 14.5678 9.47492 14.56 9.47168C14.5517 9.46825 14.5455 9.46385 14.5408 9.45909C14.536 9.45433 14.5316 9.44815 14.5282 9.43987C14.525 9.43207 14.521 9.41862 14.521 9.39718V1.08169C14.521 1.06026 14.525 1.04681 14.5282 1.039C14.5316 1.03073 14.536 1.02455 14.5408 1.01978C14.5455 1.01502 14.5517 1.01063 14.56 1.00719C14.5678 1.00396 14.5813 1 14.6027 1H22.9182C22.9396 1 22.9531 1.00396 22.9609 1.00719C22.9691 1.01063 22.9753 1.01502 22.9801 1.01978C22.9848 1.02455 22.9892 1.03073 22.9927 1.039C22.9959 1.04681 22.9999 1.06026 22.9999 1.08169V9.39718C22.9999 9.41862 22.9959 9.43207 22.9927 9.43987C22.9892 9.44815 22.9848 9.45433 22.9801 9.45909C22.9753 9.46385 22.9691 9.46825 22.9609 9.47168C22.9531 9.47492 22.9396 9.47888 22.9182 9.47888Z" stroke="#1F3447" stroke-width="2" stroke-miterlimit="10"/>
<path d="M9.39718 23H1.08167C1.06024 23 1.04679 22.996 1.03899 22.9928C1.03072 22.9894 1.02454 22.985 1.01978 22.9802C1.01502 22.9755 1.01063 22.9693 1.00719 22.961C1.00396 22.9532 1 22.9398 1 22.9183V14.6028C1 14.5814 1.00396 14.5679 1.00719 14.5601C1.01063 14.5518 1.01502 14.5457 1.01978 14.5409C1.02454 14.5361 1.03072 14.5318 1.03899 14.5283C1.04679 14.5251 1.06024 14.5211 1.08167 14.5211H9.39718C9.41861 14.5211 9.43206 14.5251 9.43987 14.5283C9.44815 14.5318 9.45433 14.5362 9.45909 14.5409C9.46385 14.5457 9.46825 14.5519 9.47168 14.5601C9.47492 14.5679 9.47888 14.5814 9.47888 14.6028V22.9183C9.47888 22.9397 9.47492 22.9532 9.47168 22.961C9.46825 22.9693 9.46385 22.9755 9.45909 22.9802C9.45433 22.985 9.44815 22.9894 9.43987 22.9928C9.43206 22.996 9.41861 23 9.39718 23Z" stroke="#1F3447" stroke-width="2" stroke-miterlimit="10"/>
<path d="M22.5803 24H14.2648C13.6563 24 13.1831 23.5268 13.1831 22.9183V14.6028C13.1831 13.9944 13.6563 13.5211 14.2648 13.5211H22.5803C23.1887 13.5211 23.662 13.9944 23.662 14.6028V22.9183C23.662 23.5268 23.1887 24 22.5803 24Z" fill="#365C7D"/>
</svg>
