<svg width="18" height="17" viewBox="0 0 18 17" fill="none" xmlns="http://www.w3.org/2000/svg">
<path d="M8.55762 17C3.871 17 0.0576172 13.1866 0.0576172 8.50003C0.0576172 3.81341 3.871 0 8.55762 0C13.2442 0 17.0576 3.81341 17.0576 8.50003C17.0576 13.1866 13.2442 17 8.55762 17ZM8.55762 0.808193C4.3169 0.808193 0.86581 4.25932 0.86581 8.50003C0.86581 12.7407 4.3169 16.1918 8.55762 16.1918C12.7983 16.1918 16.2494 12.7407 16.2494 8.50003C16.2494 4.25932 12.7983 0.808193 8.55762 0.808193ZM11.4235 5.05123C11.0751 5.05123 10.7941 5.33223 10.7941 5.6806C10.7941 6.02896 11.0751 6.30996 11.4235 6.30996C11.7718 6.30996 12.0528 6.02896 12.0528 5.6806C12.0528 5.33223 11.7718 5.05123 11.4235 5.05123ZM8.62727 5.8571C7.17112 5.8571 5.98437 7.04156 5.98437 8.50003C5.98437 9.9585 7.1688 11.1429 8.62727 11.1429C10.0857 11.1429 11.2702 9.9585 11.2702 8.50003C11.2702 7.04156 10.0857 5.8571 8.62727 5.8571ZM8.62727 10.1907C7.69367 10.1907 6.93426 9.43131 6.93426 8.4977C6.93426 7.5641 7.69367 6.80466 8.62727 6.80466C9.56088 6.80466 10.3203 7.5641 10.3203 8.4977C10.3203 9.43131 9.56088 10.1907 8.62727 10.1907ZM13.9595 6.30298C13.9595 4.52402 12.5173 3.07951 10.736 3.07951H6.4837C4.70473 3.07951 3.2602 4.5217 3.2602 6.30298V10.5576C3.2602 12.3366 4.70241 13.7812 6.4837 13.7812H10.736C12.515 13.7812 13.9595 12.3389 13.9595 10.5576V6.30298ZM12.9493 10.5576C12.9493 11.7792 11.9576 12.7709 10.736 12.7709H6.4837C5.26211 12.7709 4.27044 11.7792 4.27044 10.5576V6.30298C4.27044 5.0814 5.26211 4.08978 6.4837 4.08978H10.736C11.9576 4.08978 12.9493 5.0814 12.9493 6.30298V10.5576Z" fill="#35dde3"/>
</svg>
