<svg width="18" height="18" viewBox="0 0 18 18" fill="none" xmlns="http://www.w3.org/2000/svg">
<path d="M8.55763 17.1639C3.87084 17.1639 0.0576172 13.3508 0.0576172 8.66397C0.0576172 3.97717 3.87084 0.16394 8.55763 0.16394C13.2444 0.16394 17.0576 3.97717 17.0576 8.66397C17.0576 13.3508 13.2444 17.1639 8.55763 17.1639ZM8.55763 1.07911C4.37465 1.07911 0.97278 4.48098 0.97278 8.66397C0.97278 12.847 4.37465 16.2488 8.55763 16.2488C12.7406 16.2488 16.1425 12.847 16.1425 8.66397C16.1425 4.48098 12.7406 1.07911 8.55763 1.07911Z" fill="#35dde3"/>
<path d="M13.364 9.31305V12.4861C13.364 12.5647 13.2993 12.6271 13.223 12.6271H11.5845C11.5059 12.6271 11.4435 12.5624 11.4435 12.4861V9.53496C11.4435 8.75845 11.1662 8.22687 10.4705 8.22687C9.939 8.22687 9.62472 8.58509 9.48375 8.92944C9.4329 9.05193 9.41903 9.22526 9.41903 9.39859V12.4861C9.41903 12.5647 9.35432 12.6271 9.27806 12.6271H7.63951C7.56094 12.6271 7.49623 12.5647 7.49854 12.4861C7.50316 11.7004 7.51934 7.88718 7.50085 6.9905C7.50085 6.91192 7.56325 6.84719 7.64182 6.84719H9.27575C9.35432 6.84719 9.41672 6.91192 9.41672 6.98819V7.66531C9.41672 7.66531 9.40746 7.67919 9.40284 7.68381H9.41672V7.66531C9.67324 7.27243 10.1285 6.71082 11.15 6.71082C12.4141 6.71082 13.364 7.53817 13.364 9.31305ZM4.65367 12.6294H6.29219C6.37076 12.6294 6.43316 12.5647 6.43316 12.4884V6.9905C6.43316 6.91192 6.36845 6.8495 6.29219 6.8495H4.65367C4.57509 6.8495 4.5127 6.91423 4.5127 6.9905V12.4884C4.5127 12.567 4.57509 12.6294 4.65367 12.6294Z" fill="#35dde3"/>
<path d="M5.4161 6.11143C5.98407 6.11143 6.44453 5.651 6.44453 5.08303C6.44453 4.51505 5.98407 4.05457 5.4161 4.05457C4.84812 4.05457 4.3877 4.51505 4.3877 5.08303C4.3877 5.651 4.84812 6.11143 5.4161 6.11143Z" fill="#35dde3"/>
</svg>
