<svg width="112" height="20" viewBox="0 0 112 20" fill="none" xmlns="http://www.w3.org/2000/svg">
<path d="M8.78539 10.8C10.3054 10.2 11.3054 8.98 11.3054 7.24C11.3054 4.62 9.50539 3 6.16539 3H1.32539C0.725391 3 0.385391 3.34 0.385391 3.94V15.06C0.385391 15.66 0.725391 16 1.32539 16H2.96539C3.56539 16 3.90539 15.66 3.90539 15.06V11.28H5.26539L7.36539 15.08C7.70539 15.7 7.86539 16 8.48539 16H10.5254C11.1254 16 11.4854 15.68 11.1454 15.06L8.78539 10.8ZM3.90539 5.86H6.10539C7.00539 5.86 7.72539 6.44 7.72539 7.42C7.72539 8.38 7.00539 8.92 6.10539 8.92H3.90539V5.86ZM16.0318 11.74H22.3918C23.1318 11.74 23.3118 11.48 23.3118 10.78C23.3118 9.4 22.7718 8.08 21.8518 7.16C20.9918 6.3 19.6718 5.74 18.0718 5.74C14.9318 5.74 12.6918 7.96 12.6918 10.98C12.6918 14.1 15.0318 16.26 18.2318 16.26C19.8118 16.26 21.6318 15.74 22.5318 14.78C22.7718 14.52 22.9318 14.18 22.4918 13.76L21.8118 13.06C21.4318 12.66 21.1318 12.8 20.7718 13.08C20.0518 13.58 19.3518 13.8 18.6318 13.8C17.3118 13.8 16.1918 13.08 16.0318 11.74ZM17.9918 8.12C18.5718 8.12 19.0318 8.32 19.3918 8.68C19.6718 8.96 19.8718 9.36 19.9518 9.84H16.0518C16.1918 8.78 16.9318 8.12 17.9918 8.12ZM29.8701 16.26C31.5701 16.26 32.8701 15.64 33.8301 14.7C34.0901 14.42 34.2501 14.1 33.8101 13.66L32.7501 12.6C32.4701 12.34 32.1701 12.22 31.7101 12.64C31.2101 13.1 30.6101 13.32 30.0101 13.32C28.7101 13.32 27.8301 12.32 27.8301 11C27.8301 9.68 28.7301 8.7 30.0101 8.7C30.6101 8.7 31.2101 8.9 31.7101 9.36C32.1701 9.78 32.4701 9.66 32.7501 9.4L33.8101 8.34C34.2501 7.9 34.0901 7.58 33.8301 7.3C32.8701 6.36 31.5701 5.74 29.8701 5.74C26.7301 5.74 24.4101 7.96 24.4101 11C24.4101 14.04 26.7301 16.26 29.8701 16.26ZM39.9751 5.74C38.7751 5.74 37.3351 6.1 36.3551 6.72C35.9351 6.98 35.7751 7.34 36.1151 7.98L36.3351 8.44C36.6151 9 37.0551 9.04 37.4951 8.8C37.9751 8.52 38.7551 8.22 39.7351 8.22C40.8951 8.22 41.5551 8.78 41.5551 9.72V10.08C40.8351 9.84 40.0551 9.66 39.2751 9.66C36.6751 9.66 34.9751 11.02 34.9751 13.08C34.9751 14.98 36.5351 16.26 38.9151 16.26C40.1551 16.26 41.2751 15.76 42.1151 15V15.08C42.1151 15.66 42.4351 16 43.0151 16H43.8351C44.4351 16 44.7551 15.68 44.7551 15.08V10.02C44.7551 6.8 42.3951 5.74 39.9751 5.74ZM39.7951 14.12C38.8351 14.12 38.2151 13.64 38.2151 12.9C38.2151 12.16 38.8551 11.64 39.8351 11.64C40.5551 11.64 41.2551 11.9 41.6351 12.08V12.9C41.6351 13.44 40.8751 14.12 39.7951 14.12ZM54.0613 5.96C53.6413 5.82 53.1613 5.74 52.6213 5.74C51.5213 5.74 50.5813 6.32 49.8813 7.3V6.82C49.8813 6.24 49.5613 5.9 48.9813 5.9H47.9213C47.3413 5.9 47.0213 6.24 47.0213 6.82V15.08C47.0213 15.66 47.3413 16 47.9213 16H49.5813C50.1613 16 50.4813 15.66 50.4813 15.08V10.62C50.4813 9.44 51.1213 8.66 52.3013 8.66C52.6413 8.66 53.0213 8.76 53.3413 8.86C53.6813 9 54.0213 8.88 54.1813 8.32L54.5613 6.82C54.7213 6.24 54.4013 6.08 54.0613 5.96ZM64.5188 5.9H63.5988C62.9988 5.9 62.6788 6.24 62.6788 6.82V6.84C61.8588 6.16 60.8188 5.74 59.6188 5.74C56.9188 5.74 54.8788 7.74 54.8788 10.44C54.8788 13.16 56.9188 15.16 59.5988 15.16C60.6188 15.16 61.5388 14.86 62.2788 14.36V15.38C62.2788 16.72 61.0788 17.3 59.8388 17.3C58.5788 17.3 57.4988 16.7 56.9388 16.18C56.4388 15.78 56.0588 15.88 55.7388 16.22L55.1788 16.88C54.7788 17.36 54.8988 17.76 55.2188 18.1C56.1788 19.06 57.6788 19.8 59.7988 19.8C62.9788 19.8 65.4388 18.14 65.4388 14.74V6.82C65.4388 6.24 65.0988 5.9 64.5188 5.9ZM60.3988 12.62C59.1788 12.62 58.2988 11.7 58.2988 10.44C58.2988 9.18 59.1788 8.28 60.3988 8.28C61.6388 8.28 62.5188 9.18 62.5188 10.46C62.5188 11.7 61.6388 12.62 60.3988 12.62ZM72.104 5.74C70.904 5.74 69.464 6.1 68.484 6.72C68.064 6.98 67.904 7.34 68.244 7.98L68.464 8.44C68.744 9 69.184 9.04 69.624 8.8C70.104 8.52 70.884 8.22 71.864 8.22C73.024 8.22 73.684 8.78 73.684 9.72V10.08C72.964 9.84 72.184 9.66 71.404 9.66C68.804 9.66 67.104 11.02 67.104 13.08C67.104 14.98 68.664 16.26 71.044 16.26C72.284 16.26 73.404 15.76 74.244 15V15.08C74.244 15.66 74.564 16 75.144 16H75.964C76.564 16 76.884 15.68 76.884 15.08V10.02C76.884 6.8 74.524 5.74 72.104 5.74ZM71.924 14.12C70.964 14.12 70.344 13.64 70.344 12.9C70.344 12.16 70.984 11.64 71.964 11.64C72.684 11.64 73.384 11.9 73.764 12.08V12.9C73.764 13.44 73.004 14.12 71.924 14.12ZM84.4895 16H86.1295C86.7295 16 87.0695 15.66 87.0695 15.06V11.66H89.4495C92.8295 11.66 94.5895 9.98 94.5895 7.34C94.5895 4.7 92.7895 3 89.4495 3H84.4895C83.8895 3 83.5495 3.34 83.5495 3.94V15.06C83.5495 15.66 83.8895 16 84.4895 16ZM87.0695 8.98V5.86H89.4095C90.3295 5.86 91.0095 6.4 91.0095 7.44C91.0095 8.44 90.3295 8.98 89.4095 8.98H87.0695ZM97.8629 4.36C99.0229 4.36 99.9429 3.42 99.9429 2.28C99.9429 1.12 99.0229 0.2 97.8629 0.2C96.7229 0.2 95.7829 1.12 95.7829 2.28C95.7829 3.42 96.7229 4.36 97.8629 4.36ZM97.0429 16H98.6829C99.2629 16 99.6029 15.66 99.6029 15.08V6.82C99.6029 6.24 99.2629 5.9 98.6829 5.9H97.0429C96.4429 5.9 96.1229 6.24 96.1229 6.82V15.08C96.1229 15.66 96.4429 16 97.0429 16ZM108.304 10.98L111.484 6.82C111.924 6.24 111.604 5.9 111.024 5.9H109.204C108.624 5.9 108.324 6.22 107.924 6.78L106.544 8.82L105.144 6.78C104.764 6.22 104.444 5.9 103.864 5.9H101.724C101.144 5.9 100.844 6.24 101.284 6.82L104.464 10.98L101.264 15.08C100.824 15.66 101.144 16 101.724 16H103.524C104.124 16 104.424 15.68 104.804 15.12L106.224 13.12L107.624 15.12C108.004 15.68 108.304 16 108.884 16H111.044C111.624 16 111.904 15.64 111.484 15.08L108.304 10.98Z" fill="#365C7D"/>
</svg>
