<svg width="27" height="27" viewBox="0 0 27 27" fill="none" xmlns="http://www.w3.org/2000/svg">
<path d="M12.8318 5.8645L15.5534 8.14831L13.2697 10.87L10.5481 8.58622L12.8318 5.8645Z" stroke="#365C7D" strokeWidth="2" strokeLinecap="round" strokeLinejoin="round"/>
<path d="M13.8162 16.2041L16.5379 18.4879L14.2542 21.2096L11.5325 18.9258L13.8162 16.2041Z" stroke="#365C7D" strokeWidth="2" strokeLinecap="round" strokeLinejoin="round"/>
<path d="M8.02002 11.486L10.7961 13.8153L8.46669 16.5914L5.69063 14.262L8.02002 11.486Z" stroke="#365C7D" strokeWidth="2" strokeLinecap="round" strokeLinejoin="round"/>
<path d="M18.979 15.5133L16.203 13.1839L18.5323 10.4078L21.3083 12.7372L18.979 15.5133Z" stroke="#365C7D" strokeWidth="2" strokeLinecap="round" strokeLinejoin="round"/>
<path d="M22.7115 16.3261L24.7995 13.8376C25.4628 13.047 25.3598 11.8693 24.5692 11.2059L22.0808 9.1178" stroke="#365C7D" strokeWidth="2" strokeLinecap="round" strokeLinejoin="round"/>
<path d="M16.3253 4.28883L13.8369 2.20074C13.0463 1.53733 11.8687 1.64036 11.2053 2.43098L9.11732 4.91945" stroke="#365C7D" strokeWidth="2" strokeLinecap="round" strokeLinejoin="round"/>
<path d="M4.28882 10.6752L2.20078 13.1636C1.53738 13.9542 1.64041 15.1319 2.43102 15.7953L4.91945 17.8833" stroke="#365C7D" strokeWidth="2" strokeLinecap="round" strokeLinejoin="round"/>
<path d="M10.6737 22.7113L13.1621 24.7994C13.9527 25.4628 15.1304 25.3598 15.7937 24.5692L17.8817 22.0807" stroke="#365C7D" strokeWidth="2" strokeLinecap="round" strokeLinejoin="round"/>
</svg>
