<svg width="17" height="18" viewBox="0 0 17 18" fill="none" xmlns="http://www.w3.org/2000/svg">
<path d="M8.50001 17.1467C3.81472 17.1467 0 13.332 0 8.64673C0 3.96144 3.81472 0.146729 8.50001 0.146729C13.1853 0.146729 17 3.96144 17 8.64673C17 13.332 13.1853 17.1467 8.50001 17.1467ZM8.50001 1.06086C4.31728 1.06086 0.914117 4.464 0.914117 8.64673C0.914117 12.8295 4.31728 16.2327 8.50001 16.2327C12.6827 16.2327 16.0859 12.8295 16.0859 8.64673C16.0859 4.464 12.6827 1.06086 8.50001 1.06086Z" fill="#35dde3"/>
<path fillRule="evenodd" clipRule="evenodd" d="M12.1215 10.0649C11.7179 9.82347 11.1955 9.55436 10.7207 9.74826C10.3566 9.89864 10.1232 10.4645 9.88969 10.7574C9.76702 10.9077 9.62455 10.9315 9.43857 10.8563C8.07334 10.3142 7.02865 9.40001 6.27283 8.14559C6.1462 7.95169 6.16994 7.79742 6.32032 7.61539C6.54983 7.3463 6.83475 7.04156 6.89411 6.68145C6.95742 6.32135 6.78726 5.89792 6.63688 5.57739C6.44694 5.16584 6.23325 4.58023 5.82171 4.34676C5.44182 4.13307 4.94321 4.25177 4.60685 4.52877C4.02515 5.00363 3.7442 5.7436 3.75212 6.47963C3.75212 6.68936 3.77982 6.89912 3.8273 7.10094C3.94602 7.58767 4.16762 8.03877 4.42088 8.4701C4.61082 8.79459 4.8166 9.11122 5.04216 9.41196C5.77423 10.4052 6.68042 11.2638 7.73303 11.9089C8.25933 12.2294 8.8252 12.5143 9.41086 12.7082C10.0678 12.9259 10.6534 13.1514 11.3657 13.0169C12.1097 12.8744 12.8417 12.4154 13.1346 11.6991C13.2216 11.4854 13.2651 11.252 13.2177 11.0264C13.1148 10.5634 12.4895 10.2865 12.1136 10.0649H12.1215Z" fill="#35dde3"/>
</svg>
