<svg width="23" height="27" viewBox="0 0 23 27" fill="none" xmlns="http://www.w3.org/2000/svg">
<path d="M17.6892 22.892C19.9865 22.892 21.8784 21.0001 21.8784 18.7028V6.74326C21.8784 4.24325 21.3379 1 11.473 1C1.60811 1 1 4.24325 1 6.74326V18.7028C1 21.0001 2.89191 22.892 5.18921 22.892H17.6892Z" stroke="#1F3447" stroke-width="1.7703" stroke-miterlimit="10" stroke-linecap="round" stroke-linejoin="round"/>
<path d="M5.18932 18.7028C6.04761 18.7028 6.74337 18.007 6.74337 17.1488C6.74337 16.2905 6.04761 15.5947 5.18932 15.5947C4.33104 15.5947 3.63525 16.2905 3.63525 17.1488C3.63525 18.007 4.33104 18.7028 5.18932 18.7028Z" fill="#365C7D"/>
<path d="M17.6893 18.7028C18.5476 18.7028 19.2434 18.007 19.2434 17.1488C19.2434 16.2905 18.5476 15.5947 17.6893 15.5947C16.831 15.5947 16.1353 16.2905 16.1353 17.1488C16.1353 18.007 16.831 18.7028 17.6893 18.7028Z" fill="#365C7D"/>
<path d="M6.74337 22.8919L3.63525 26" stroke="#1F3447" stroke-width="1.7703" stroke-miterlimit="10" stroke-linecap="round" stroke-linejoin="round"/>
<path d="M16.1353 22.8919L19.2434 26" stroke="#1F3447" stroke-width="1.7703" stroke-miterlimit="10" stroke-linecap="round" stroke-linejoin="round"/>
<path d="M18.7024 13.5H4.17533C3.56722 13.5 3.09424 13.027 3.09424 12.4189V7.28377C3.09424 6.67566 3.56722 6.20268 4.17533 6.20268H18.7024C19.3105 6.20268 19.7835 6.67566 19.7835 7.28377V12.4189C19.7835 13.027 19.3105 13.5 18.7024 13.5Z" fill="#365C7D"/>
<path d="M7.28369 4.10818H15.5945" stroke="#1F3447" stroke-width="1.7703" stroke-miterlimit="10" stroke-linecap="round" stroke-linejoin="round"/>
<path d="M4.64893 24.9866H18.23" stroke="#1F3447" stroke-width="1.7703" stroke-miterlimit="10" stroke-linecap="round" stroke-linejoin="round"/>
</svg>
