<svg width="245" height="145" viewBox="0 0 245 145" fill="none" xmlns="http://www.w3.org/2000/svg">
<path d="M13.3058 78.1472C13.2717 77.2951 12.7141 76.7665 11.6334 76.56C9.76572 76.1967 8.31542 76.1056 7.28132 76.2864C6.25002 76.4851 5.47482 77.0473 4.95712 77.9735C3.57592 81.3204 3.88552 83.9687 5.88502 85.9224C7.87402 87.8722 9.03182 88.8308 9.35962 88.7985C9.36772 88.789 9.37642 88.7882 9.38602 88.7963C9.75232 87.6368 10.102 86.7645 10.4356 86.1768C10.8055 85.5577 11.104 84.973 11.334 84.4218C11.6816 83.6409 11.9097 82.9199 12.0196 82.2606C12.1994 81.68 12.3863 81.0997 12.5782 80.5163C12.7837 79.83 12.9919 79.1502 13.2005 78.4747C13.2437 78.3675 13.2791 78.257 13.3061 78.1459M20.4812 55.2354L20.3821 55.1942C18.6862 54.8382 17.4844 55.426 16.7752 56.9571C16.0951 58.4394 16.0839 59.945 16.7395 61.4762C16.8116 61.6401 16.8926 61.809 16.98 61.9809C17.5603 62.6227 17.8539 62.9322 17.8592 62.9105C17.8631 62.8942 17.8833 62.882 17.9181 62.8747L20.305 55.2342L20.4812 55.2354ZM81.9969 76.4761C82.0489 76.2863 82.0599 76.1124 82.0309 75.9533C80.8203 71.1 77.0739 64.0077 70.7923 54.6736C67.6662 65.6002 65.4746 77.642 64.2175 90.7991C64.1908 91.0509 64.1654 91.3031 64.1424 91.5573C64.0638 91.5324 63.9832 91.51 63.8978 91.4892C63.7039 91.4307 63.5216 91.372 63.3504 91.3147C63.1578 91.2507 63.0027 91.1627 62.8839 91.0492C62.7047 90.8593 62.5486 90.6449 62.4161 90.4047C62.2331 90.3487 62.0611 90.271 61.8991 90.17C58.4761 87.8317 54.9296 85.5294 51.2588 83.2601C51.0825 83.2001 51.0421 83.1716 51.1368 83.1717C51.2382 83.1734 50.8016 82.9209 49.8282 82.4147C48.8602 81.9098 47.2572 80.4326 45.0193 77.9832C42.7881 75.5297 39.8291 75.9074 36.1439 79.1152C35.075 80.1601 34.5809 81.2254 34.6585 82.312C34.7293 83.3854 34.8868 84.0422 35.1327 84.2827C37.1236 88.9539 40.4859 92.718 45.2217 95.578C49.4049 98.095 52.8771 100.821 55.6371 103.756C56.4759 104.651 57.244 105.613 57.9382 106.643C58.0795 106.941 58.2046 107.188 58.3151 107.383C58.47 107.578 58.656 107.829 58.8745 108.134C58.9608 108.24 59.0496 108.365 59.1378 108.51C59.0893 108.639 59.0462 108.769 59.0085 108.9C58.4126 110.869 57.9108 112.504 57.5058 113.805C57.4377 113.991 57.377 114.175 57.3211 114.358C57.2694 114.571 57.0807 114.876 56.753 115.274C56.4183 115.659 55.882 115.734 55.1469 115.499C54.9706 115.439 54.7882 115.381 54.5995 115.325C47.2092 113.007 39.8252 110.693 32.4499 108.385C32.2587 108.315 32.0705 108.257 31.8862 108.206C28.5582 107.167 25.3287 106.159 22.1999 105.179C22.143 105.159 22.0834 105.139 22.021 105.118L22.019 105.126C21.0979 105.114 20.3931 105.115 19.9024 105.126C19.9389 105.129 19.9721 105.134 20.0006 105.141C19.8842 105.136 19.7749 105.131 19.6748 105.13C19.2882 105.126 18.938 105.12 18.6258 105.112C17.5632 105.09 17.0186 105.076 16.9915 105.069C15.2297 104.872 13.88 105.359 12.9438 106.531C12.7297 106.928 12.5652 107.305 12.4502 107.66C12.2693 108.381 12.2698 109.1 12.4484 109.818C12.4614 109.883 12.4607 109.95 12.4494 110.02C13.5903 112.36 15.5245 113.85 18.2519 114.491C20.6042 115.034 22.9948 115.271 25.4222 115.204C26.8363 115.26 28.7486 115.346 31.1606 115.459C30.9454 115.442 30.7352 115.426 30.5298 115.415C31.4611 115.445 32.3836 115.452 33.2981 115.439C33.4844 115.434 33.6652 115.458 33.8373 115.511C34.5847 115.743 35.3263 115.975 36.0641 116.204C36.2255 116.255 37.8943 116.758 41.0686 117.715C41.0688 117.738 41.0645 117.756 41.0551 117.771C41.9515 118.039 42.8097 118.299 43.6316 118.549C43.1607 118.384 43.8023 118.549 45.5607 119.043C45.5689 119.057 45.5785 119.065 45.5893 119.067C45.6234 119.11 45.6694 119.146 45.7237 119.176C45.7589 119.19 45.8044 119.204 45.8572 119.217C45.9896 119.345 46.0479 119.407 46.0316 119.403L46.1368 119.454C49.2594 123.26 52.2561 127.135 55.125 131.08L63.3883 143.298L63.3564 143.636C66.5643 143.959 69.1762 144.225 71.1891 144.434L71.1004 143.966L72.255 144.66L71.7227 143.519L73.0044 144.387L72.7168 143.314L73.4346 143.969L73.4013 142.788L73.944 143.679L74.3331 143.395L73.727 142.245L73.9384 142.592L74.1904 142.594L74.2882 142.298L73.9955 141.417L74.9229 141.971L75.1483 141.841L74.039 139.986L76.0854 141.664L76.1913 141.369L76.451 141.204L75.9344 139.721L76.6186 140.166L76.8273 138.715L78.3846 138.378L77.7935 137.686L79.0721 137.592L78.8167 137.184L80.4058 137.342L80.568 137.229L80.9101 137.245L81.2069 135.049C81.4569 135.476 81.7319 135.883 82.0309 136.27C82.0299 136.275 82.0559 136.261 82.1079 136.23L82.0319 134.634C82.4969 134.735 82.9609 134.84 83.4229 134.946L83.3029 133.981L83.8639 134.59L83.7989 133.604L84.4099 133.972L83.5819 132.211L84.7179 132.883L83.8649 131.503L84.9769 132.093L84.6119 130.782L85.7469 131.421L86.0229 131.361L84.6999 129.38L86.5239 130.168L85.7269 128.584L87.0549 129.472L86.6509 127.873L87.5359 128.88L87.1759 127.098L88.0469 128.439L87.7999 127.409L87.8919 127.237L87.4529 125.782L88.5359 126.669L88.5649 126.659C88.2689 126.138 87.9659 125.619 87.6519 125.105L89.1749 126.158L88.2119 124.608L89.0349 124.969L88.5599 123.766L88.9019 123.916L88.5839 122.726L89.2029 122.85L88.8609 121.999L89.8909 122.343L88.8539 119.915L90.0079 121.064L90.2009 120.478L91.0089 120.624L90.2369 119.046C90.5749 119.274 90.9349 119.432 91.3189 119.52L91.8679 119.653C92.1169 119.713 92.3089 119.696 92.4459 119.6L89.6519 113.466L89.3459 112.676C89.2909 112.542 89.2429 112.414 89.2019 112.295C88.4389 103.796 87.8469 96.632 87.4249 90.8021L86.5719 88.6559C86.5099 88.45 86.4449 88.2492 86.3809 88.0528C86.1799 87.493 86.1219 86.9106 86.2059 86.307C86.0689 86.133 85.9399 85.9668 85.8209 85.8086C85.3499 85.1776 84.9569 84.5024 84.6429 83.7861L83.6339 81.2392C83.9039 82.0022 84.1629 82.7195 84.4099 83.3923C84.2219 83.0093 84.0469 82.6181 83.8859 82.2187C83.8059 82.0143 83.7249 81.8038 83.6429 81.5858C82.9759 79.9397 82.4249 78.2374 81.9919 76.4805M45.4034 118.882C45.4198 118.909 45.4434 118.936 45.476 118.967C43.9357 118.502 42.9382 118.201 42.4838 118.063C43.5952 118.368 44.5694 118.64 45.4047 118.882M79.9553 136.591C79.8231 136.508 79.8245 136.503 79.9592 136.574L79.9553 136.591Z" fill="#BE823B"/>
<path d="M38.7191 1.95342C38.3448 1.86972 37.3825 1.56569 35.8336 1.04165C35.3831 0.893477 34.9141 0.762328 34.425 0.649248C33.5129 0.421978 32.5366 0.240797 31.494 0.108087C29.6113 -0.158353 28.0782 0.0677076 26.8932 0.787278C26.0884 1.28209 25.4919 1.95942 25.102 2.82052C25.0129 3.00982 24.9352 3.21192 24.8673 3.42652C24.8151 3.61192 24.3052 4.85992 23.3368 7.16912C23.2558 7.35472 23.1735 7.53992 23.0932 7.72272C23.0603 7.80512 23.0328 7.88892 23.0107 7.97392C22.4226 9.40252 22.0824 10.567 21.9869 11.468C21.8813 12.411 21.5182 13.5512 20.8957 14.8853C20.1751 16.4281 19.7069 17.6231 19.4917 18.4678C19.2068 19.6643 19.0019 20.7913 18.8767 21.8501C18.8206 22.4593 18.7277 23.427 18.5965 24.7527C18.4963 25.8506 18.1534 27.3803 17.5696 29.3409C17.0001 31.183 16.447 32.6804 15.9112 33.8346C15.5055 34.7191 15.1212 36.0766 14.7577 37.9099C14.5632 38.9059 14.2888 40.3074 13.9329 42.1152C13.651 43.2106 13.3249 44.6597 12.9527 46.4637C12.6257 48.135 12.3362 49.6576 12.0832 51.0298C11.8178 52.5124 11.5512 54.2544 11.2835 56.2544C11.189 56.939 10.754 58.7003 9.9788 61.5372C9.1986 64.2882 8.7183 65.8463 8.5371 66.2141L6.0487 77.221C4.3133 84.8029 3.318 89.1247 3.0637 90.1837C2.7296 91.4587 2.3335 92.9709 1.8737 94.7219C1.3605 96.4749 0.969703 97.7699 0.699403 98.6119C0.401903 99.4409 0.258302 100.469 0.265502 101.698C0.256902 102.944 0.400203 104.133 0.696303 105.265C0.948203 106.214 1.8405 107.042 3.3728 107.752C3.4365 107.774 3.5186 107.808 3.621 107.853C3.6983 107.872 3.7803 107.906 3.8692 107.953C4.5457 108.211 5.6526 108.593 7.1869 109.101C7.8424 109.303 9.5108 109.69 12.193 110.257C14.9934 110.833 16.9669 111.293 18.1152 111.635C19.3754 111.982 21.339 112.66 24.0086 113.669C26.8816 114.733 28.5427 115.344 28.9922 115.502L29.3933 115.6C30.2972 115.819 31.8561 116.113 34.0719 116.485C36.8809 116.926 38.4751 117.199 38.8539 117.305C39.5155 117.458 40.7443 117.616 42.5431 117.779C43.531 117.871 44.853 117.989 46.5133 118.131C47.3003 118.217 48.2046 118.411 49.2284 118.71C49.7885 118.85 50.5601 119.071 51.5416 119.372C52.1639 119.516 52.979 119.658 53.9888 119.796C54.1638 119.814 54.9089 119.902 56.2257 120.058C57.0317 120.16 57.6223 120.18 57.9994 120.117C58.6466 119.987 59.1692 119.649 59.5647 119.102C59.7496 118.837 59.9384 118.491 60.1321 118.066C60.3288 117.593 60.5255 117.025 60.721 116.362C60.9355 115.615 61.1896 114.616 61.4819 113.366C61.6061 112.866 61.9202 111.591 62.4226 109.54C62.9295 107.5 63.242 106.226 63.3634 105.714C64.5853 100.855 65.7835 96.1289 66.9595 91.5353C67.9627 87.4938 68.7823 84.1669 69.4166 81.5555C70.2056 78.3073 70.7064 76.1745 70.9164 75.1563C71.6491 71.2831 72.7652 65.7607 74.2649 58.588C76.071 49.7403 77.1427 44.9261 77.4788 44.1453C77.7506 43.4162 77.9532 42.57 78.0848 41.6032C78.2472 40.3022 78.3403 39.6058 78.3627 39.5137C78.4288 39.1882 78.7271 38.226 79.2596 36.6304C79.762 35.0289 80.103 33.8316 80.2848 33.0363C80.5004 32.1013 80.7563 30.859 81.048 29.3082C81.405 27.2839 81.691 25.6872 81.906 24.5195C82.396 22.3986 82.688 20.9253 82.784 20.096C82.951 18.7332 82.748 17.5832 82.172 16.6454C81.559 15.5953 80.7807 14.7173 79.836 14.01C79.3486 13.6419 78.8382 13.3443 78.3094 13.1169C77.9425 12.9373 77.555 12.7958 77.1478 12.694C76.1306 12.3795 75.3654 12.1506 74.851 12.0056C73.9479 11.759 72.9477 11.5404 71.8495 11.3468C71.0778 11.2153 69.5473 10.7101 67.2584 9.82982C65.1537 9.00002 63.5891 8.54682 62.5647 8.46872C60.6483 8.31182 58.8901 8.11152 57.2924 7.87122C56.878 7.79922 56.2786 7.54322 55.4957 7.10332C54.6643 6.64452 54.1079 6.38882 53.8291 6.33692C53.7023 6.29172 52.6732 5.89102 50.7415 5.13482C48.9187 4.40932 47.5165 3.93102 46.5335 3.70092C42.8117 2.85862 40.2065 2.27602 38.7178 1.95312L38.7191 1.95342Z" fill="#036E5C"/>
<path d="M70.4579 71.7903C70.4108 71.8722 70.3581 71.947 70.3004 72.0133C69.4347 73.2969 68.6734 74.6648 68.0158 76.1195C67.3036 75.3825 66.771 74.4911 66.4207 73.446C66.5439 72.3953 66.92 71.485 67.5491 70.715C67.6155 70.6422 67.6793 70.5687 67.741 70.4976L70.4576 71.7917M73.5344 69.1508C73.3662 69.2405 73.1916 69.3331 73.0106 69.4283C72.1621 69.9441 71.4257 70.5889 70.7994 71.3595C70.7883 71.3697 70.7765 71.3827 70.7661 71.3959L68.2839 69.8875C69.0014 69.1433 69.7874 68.4947 70.6408 67.9414C70.7836 67.8498 70.9275 67.7599 71.0747 67.6737C71.2149 67.5929 71.3557 67.5152 71.4959 67.4402L73.534 69.1522M79.6946 68.4916C79.5912 68.5626 79.4645 68.5879 79.3152 68.5645C78.6447 68.5423 77.9677 68.5228 77.2841 68.5075L74.7103 66.3654C75.2608 66.2853 75.8116 66.2511 76.365 66.265C77.8857 66.2613 78.7319 66.4639 78.9031 66.87C79.0739 67.2717 79.339 67.8111 79.6959 68.4919L79.6946 68.4916Z" fill="#CDF0F4"/>
<path d="M70.7681 71.395C70.6628 71.5273 70.5592 71.6585 70.4583 71.7904L67.7417 70.4963C67.9222 70.2847 68.1035 70.0819 68.2845 69.8862L70.7668 71.3947M74.4742 66.4056C74.558 66.3973 74.6361 66.3833 74.7097 66.3638L77.2834 68.5058C77.0131 68.5019 76.7445 68.497 76.4742 68.493C75.4338 68.4929 74.4534 68.7125 73.535 69.1496L71.4969 67.4376C72.4305 66.9382 73.4239 66.594 74.4742 66.4056Z" fill="#F5FEFF"/>
<path d="M79.9317 68.9339L79.843 68.8205L79.8533 68.902L79.9314 68.9353C79.8244 69.1274 79.6532 69.2121 79.4196 69.1869C78.9438 69.1546 78.4687 69.1253 77.993 69.0988C77.5599 69.0739 77.1265 69.0504 76.6937 69.03C75.7442 69.0045 74.8555 69.1776 74.0269 69.5519C73.8179 69.6561 73.6089 69.766 73.4013 69.8821C72.6108 70.3775 71.9169 70.9953 71.3184 71.7339C71.2306 71.8532 71.1435 71.9699 71.0556 72.0834C70.9873 72.1817 70.9183 72.2826 70.8459 72.3855C70.8395 72.394 70.8332 72.4025 70.8265 72.4123C69.9848 73.709 69.243 75.1088 68.6026 76.6108C68.5315 76.5964 68.4748 76.564 68.4312 76.5133C68.2903 76.3901 68.1525 76.2604 68.0156 76.1209C68.6728 74.6676 69.4344 73.2984 70.3002 72.0147C70.3579 71.9484 70.4105 71.8737 70.4577 71.7918C70.5586 71.6599 70.6622 71.5286 70.7675 71.3963C70.7779 71.3831 70.7897 71.3702 70.8008 71.3599C71.4258 70.589 72.1635 69.9445 73.0121 69.4287C73.1934 69.3321 73.368 69.2396 73.5358 69.1512C74.4543 68.7142 75.4347 68.4946 76.4751 68.4947C76.7453 68.4986 77.0139 68.5036 77.2842 68.5076C77.9678 68.5229 78.6448 68.5424 79.3153 68.5646C79.4649 68.5866 79.5913 68.5627 79.6946 68.4917C79.7671 68.6485 79.8459 68.7968 79.931 68.9366L79.9317 68.9339Z" fill="#A0CACF"/>
<path d="M80.4152 12.9494C79.9393 12.5927 79.4496 12.3102 78.9433 12.1026C78.6701 11.9745 78.3948 11.8732 78.1143 11.7993C77.999 11.7656 77.8953 11.7375 77.8059 11.7158C76.8051 11.4167 76.0589 11.2039 75.5656 11.0784C74.6738 10.8388 73.6963 10.6386 72.6352 10.4756C71.8743 10.3468 70.3849 9.87883 68.1702 9.07113C67.2757 8.72463 66.4868 8.45703 65.8023 8.26773C64.8992 8.00393 64.1646 7.86133 63.5956 7.84083C61.7275 7.68553 60.021 7.51503 58.4757 7.33053C58.0638 7.24203 57.4794 7.00103 56.7208 6.60863C55.9142 6.16013 55.3738 5.91553 55.103 5.87843C54.9971 5.82973 54.0104 5.46093 52.1428 4.77193C50.3609 4.10233 49.0017 3.66593 48.0682 3.46223C44.4564 2.68683 41.9351 2.15473 40.5048 1.86903C40.1363 1.79103 39.2067 1.51786 37.719 1.04889C37.2455 0.895124 36.7575 0.759364 36.2575 0.643654C35.3985 0.452214 34.4961 0.303384 33.5504 0.197084C31.7247 -0.0382757 30.2399 0.208084 29.0958 0.936174C28.3216 1.39391 27.7458 2.03903 27.3705 2.86913C27.2713 3.04743 27.1884 3.24683 27.1236 3.46643C27.0594 3.63603 26.5564 4.83843 25.6152 7.07093C25.5212 7.22753 25.4391 7.39983 25.3724 7.58603C25.3313 7.66063 25.3034 7.74003 25.2881 7.82673C24.7094 9.19303 24.3759 10.3117 24.2874 11.1842C24.1724 12.0949 23.8043 13.1966 23.1802 14.4901C22.4622 15.9632 22.0028 17.1159 21.8004 17.9493C21.4961 19.0837 21.2879 20.1655 21.1727 21.1951C21.1067 21.7919 21.0108 22.7301 20.8854 24.0084C20.7571 25.0449 20.4074 26.5199 19.8365 28.4334C19.2652 30.2062 18.7121 31.6619 18.1769 32.8019C17.7788 33.6552 17.3943 34.9726 17.0233 36.7538C16.8238 37.7171 16.5362 39.0723 16.162 40.8197C15.8881 41.8998 15.5595 43.3239 15.1749 45.0904C14.8438 46.7076 14.5489 48.1874 14.2904 49.5295C14.0071 50.9733 13.7368 52.677 13.4787 54.6435C13.3526 55.3046 12.8882 57.0273 12.0883 59.8122C11.3105 62.5064 10.8357 64.0299 10.6669 64.3821L8.10055 75.2251C6.29215 82.7175 5.26375 86.9868 5.01535 88.0329C4.66395 89.2965 4.25465 90.8044 3.78985 92.5589C3.25215 94.2879 2.84945 95.5729 2.58355 96.4139C2.28225 97.2349 2.12945 98.2599 2.12345 99.4899C2.09995 100.721 2.22185 101.909 2.48935 103.053C2.73535 103.984 3.60365 104.805 5.09565 105.516C5.15935 105.531 5.23725 105.559 5.32815 105.598C5.39185 105.614 5.47875 105.652 5.58765 105.712C6.24855 105.951 7.33065 106.323 8.83235 106.828C9.46685 107.017 11.1125 107.391 13.7704 107.952C16.4986 108.524 18.4333 108.978 19.5778 109.312C20.8071 109.645 22.7402 110.318 25.3761 111.336C28.1975 112.382 29.8308 112.989 30.2788 113.16L30.6135 113.241C31.4861 113.442 33.0483 113.733 35.2998 114.118C38.0766 114.556 39.6552 114.827 40.0347 114.931C40.6946 115.086 41.9153 115.241 43.6982 115.399C44.6545 115.468 45.9619 115.58 47.6216 115.736C48.4034 115.803 49.3022 115.99 50.318 116.298C50.8708 116.427 51.6327 116.646 52.6038 116.955C53.2338 117.091 54.0428 117.234 55.0297 117.384C55.2166 117.4 55.9666 117.485 57.2793 117.634C58.0709 117.731 58.657 117.747 59.0384 117.683C59.6788 117.546 60.195 117.205 60.5857 116.659C60.7703 116.384 60.9587 116.04 61.1487 115.624C61.3389 115.142 61.5363 114.56 61.7418 113.879C61.9452 113.136 62.1986 112.135 62.504 110.877C62.6224 110.366 62.9337 109.084 63.4382 107.031C63.9318 104.976 64.2425 103.696 64.3704 103.193C65.577 98.3199 66.7626 93.5979 67.9297 89.0241C68.9272 84.9884 69.7316 81.6765 70.3431 79.0883C71.116 75.8591 71.6082 73.7443 71.8169 72.743C72.537 68.8983 73.6237 63.4434 75.0761 56.3769C76.8433 47.6891 77.89 42.9664 78.2137 42.2069C78.4727 41.4892 78.6735 40.6625 78.815 39.7311C78.958 38.4455 79.044 37.7604 79.0702 37.6763C79.1217 37.3459 79.41 36.4071 79.9311 34.8589C80.4155 33.3018 80.7486 32.1313 80.927 31.3495C80.9728 31.1138 81.03 30.855 81.098 30.5731C81.258 29.7738 81.453 28.8238 81.682 27.7213C81.998 25.7459 82.271 24.1991 82.498 23.0804C82.949 21.0145 83.2299 19.5815 83.339 18.7829C83.49 17.4648 83.286 16.3561 82.723 15.4545C82.104 14.4388 81.337 13.6025 80.4226 12.9484L80.4152 12.9494Z" fill="#00AB8E"/>
<path d="M79.5833 15.8173C79.0316 14.8509 78.3356 14.059 77.496 13.4389C76.7501 12.876 75.9548 12.4934 75.1092 12.2938C74.2161 12.0596 73.5357 11.8771 73.0663 11.7473C72.2451 11.5421 71.3556 11.3877 70.3963 11.2839C69.7113 11.1677 68.3521 10.7429 66.3222 10.0073C65.9055 9.85014 65.5196 9.71344 65.1654 9.60004C64.2427 9.48784 63.332 9.52074 62.4355 9.69614C61.9137 9.80624 60.9502 10.1275 59.5444 10.6629C58.351 11.1092 57.381 11.3572 56.6314 11.4062C55.504 11.4868 54.3596 11.259 53.1965 10.724C51.8856 10.13 50.7984 9.24744 49.9362 8.07654C49.843 7.95204 49.5852 7.57794 49.1629 6.95304C48.8588 6.49174 48.5858 6.13264 48.345 5.87754C48.0891 5.59004 47.777 5.30904 47.4115 5.03514C44.4063 4.46884 42.2911 4.08414 41.0647 3.88094C40.7285 3.78204 39.8748 3.52734 38.5025 3.11514C37.3783 2.76884 36.1162 2.53554 34.7188 2.41564C33.0627 2.24444 31.6914 2.53134 30.6056 3.27934C29.753 3.85294 29.1438 4.69504 28.7785 5.80324C28.7115 5.96064 28.2314 7.15134 27.3372 9.37384C26.6112 11.0688 26.1849 12.4161 26.06 13.4147C25.9408 14.3013 25.5811 15.3864 24.9825 16.6689C24.3145 18.1254 23.8824 19.2661 23.688 20.09C23.3879 21.2311 23.1803 22.2987 23.0621 23.2932C22.9838 23.8697 22.8811 24.789 22.7552 26.0515C22.62 27.0691 22.2798 28.5048 21.7352 30.3572C21.172 32.1205 20.6409 33.5686 20.1408 34.7C19.7588 35.5342 19.3913 36.8226 19.0413 38.5645C18.8256 39.5238 18.546 40.858 18.2036 42.5687C17.9188 43.6232 17.5988 45.0236 17.2421 46.7696C16.8728 48.3374 16.576 49.7893 16.3539 51.1231C16.073 52.51 15.7876 54.1815 15.4997 56.135C15.4126 56.7711 14.9767 58.4591 14.1941 61.1966C13.4359 63.8338 12.9747 65.3247 12.8126 65.667L10.3166 76.2917C8.56054 83.6161 7.56334 87.7982 7.32814 88.8375C7.00364 90.0789 6.60184 91.5498 6.12184 93.2481C5.60784 94.9451 5.22734 96.2041 4.97614 97.0261C4.68034 97.8481 4.53004 98.8501 4.52344 100.036C4.47924 101.21 4.57144 102.349 4.79934 103.449C4.99234 104.344 5.77484 105.117 7.14594 105.764C7.61634 106.002 8.75074 106.401 10.5474 106.962C11.1063 107.137 12.5922 107.453 15.0055 107.91C17.5122 108.373 19.2794 108.76 20.3046 109.071C21.4389 109.352 23.1939 109.949 25.5693 110.864C28.1122 111.78 29.5942 112.319 30.015 112.483C30.7145 112.682 32.2448 112.963 34.6071 113.329C37.1401 113.635 38.5709 113.842 38.8993 113.949C39.5008 114.067 40.6127 114.186 42.2357 114.305C43.1143 114.345 44.3112 114.416 45.8258 114.52C46.5409 114.535 47.3513 114.685 48.2545 114.966C48.7532 115.087 49.4594 115.282 50.3734 115.548C50.9289 115.666 51.6632 115.78 52.5752 115.889C52.7511 115.903 53.4173 115.973 54.5742 116.096C55.3287 116.139 55.8726 116.145 56.2059 116.114C56.7754 115.944 57.2665 115.588 57.6792 115.047C58.0337 114.491 58.3851 113.576 58.7337 112.301C58.9399 111.57 59.1833 110.597 59.4677 109.385C59.5982 108.871 59.92 107.618 60.4319 105.622C60.8987 103.606 61.1964 102.357 61.3244 101.877C62.5049 97.0881 63.6614 92.4511 64.7969 87.9649C66.9961 79.118 68.2731 73.8012 68.6292 72.0163C69.3704 68.2499 70.4601 62.8948 71.8991 55.9484C73.6686 47.4348 74.6965 42.8009 74.981 42.0434C75.2541 41.3563 75.4607 40.5411 75.6012 39.5965C75.7474 38.3448 75.8301 37.6789 75.8495 37.599C75.9256 37.2859 76.2113 36.3637 76.707 34.8309C77.1716 33.2905 77.4944 32.1448 77.6778 31.39C77.8794 30.489 78.1247 29.2957 78.4127 27.8086C78.7483 25.8954 79.0173 24.3807 79.2205 23.2662C79.6817 21.2256 79.9787 19.8196 80.1102 19.0479C80.2395 17.7533 80.0622 16.6755 79.5792 15.8163L79.5833 15.8173Z" fill="#F3F5F5"/>
<path d="M55.2916 93.6769C55.1195 93.6229 55.0794 93.5989 55.1738 93.6059C55.2735 93.5919 54.8374 93.3369 53.8668 92.8429C52.8934 92.3359 51.2884 90.8556 49.0518 88.4008C46.8247 85.9541 43.8677 86.3352 40.1825 89.5429C39.1136 90.5878 38.6202 91.6504 38.6991 92.7319C38.7699 93.8049 38.9269 94.4649 39.1717 94.7089C41.164 99.3749 44.5255 103.142 49.2587 106.012C52.9182 108.216 56.0343 110.577 58.6078 113.098L62.2453 98.1219C59.9766 96.6209 57.6585 95.1399 55.2903 93.6759L55.2916 93.6769Z" fill="#D4CED1"/>
<path d="M11.9903 95.509L11.8276 95.47L11.8062 95.558C11.7135 95.597 11.6194 95.642 11.523 95.69C11.4704 95.759 11.4135 95.84 11.3542 95.936C11.3674 96.03 11.3805 96.129 11.3914 96.232C11.7173 96.373 12.0403 96.515 12.3622 96.654C14.6349 97.235 16.9108 97.821 19.1907 98.413L53.6448 106.782C53.7348 106.737 53.8228 106.693 53.9115 106.653C53.9549 106.563 53.9959 106.477 54.037 106.397L54.1045 106.119C54.0733 106.011 54.0385 105.906 53.9996 105.807C42.4872 102.971 30.9714 100.144 19.4557 97.323C17.1613 96.79 14.8709 96.264 12.5827 95.746C12.3843 95.66 12.1866 95.581 11.9903 95.509ZM54.968 101.335C55.059 101.285 55.1478 101.239 55.2365 101.199C55.2799 101.109 55.3208 101.023 55.3618 100.942L55.4277 100.671C55.3965 100.563 55.3617 100.459 55.3228 100.359C43.8104 97.524 32.2946 94.697 20.7789 91.875C18.4845 91.3421 16.1942 90.8159 13.9059 90.2988C13.7075 90.2119 13.5098 90.1337 13.3135 90.0616L13.1509 90.0221L13.1295 90.1102C13.0367 90.1494 12.9433 90.1913 12.8479 90.2356C12.7942 90.3086 12.737 90.3909 12.6791 90.4816C12.6909 90.5806 12.7044 90.6786 12.7162 90.7776C13.0422 90.9185 13.3651 91.0601 13.687 91.2C15.9588 91.785 18.234 92.373 20.5139 92.966L54.968 101.335ZM56.2929 95.88C56.3829 95.835 56.4709 95.792 56.5596 95.751C56.603 95.661 56.644 95.575 56.685 95.495L56.7525 95.217C56.7204 95.113 56.6852 95.01 56.6476 94.904C45.1352 92.069 33.6194 89.2421 22.1038 86.4206C19.8094 85.8877 17.519 85.3615 15.2308 84.8444C15.0324 84.7575 14.8347 84.6793 14.6384 84.6073L14.4757 84.5678L14.4543 84.6558C14.3616 84.695 14.2675 84.7397 14.1711 84.788C14.1184 84.857 14.0615 84.9379 14.0023 85.034C14.0154 85.1276 14.0286 85.227 14.0394 85.33C14.3654 85.4709 14.6883 85.6125 15.0103 85.7524C17.283 86.3331 19.5589 86.919 21.8389 87.5115L56.2929 95.88ZM58.0086 90.0401L58.0744 89.7691C58.0432 89.661 58.0084 89.5564 57.9695 89.4566C46.457 86.6215 34.9413 83.7942 23.4256 80.9727C21.1312 80.4398 18.8409 79.9136 16.5527 79.3965C16.3542 79.3096 16.1565 79.2314 15.9602 79.1593L15.7976 79.1199L15.7762 79.2079C15.6834 79.2471 15.59 79.289 15.4946 79.3333C15.4411 79.4064 15.3837 79.4886 15.3258 79.5793C15.3376 79.6783 15.3505 79.779 15.3613 79.8821C15.6883 80.0189 16.0119 80.1578 16.3338 80.2977C18.6056 80.8825 20.8808 81.471 23.1607 82.0635C34.6427 84.8525 46.1274 87.6421 57.6148 90.4324C57.7058 90.3827 57.7944 90.3368 57.8831 90.2966C57.9264 90.2067 57.9675 90.1205 58.0086 90.0401Z" fill="#8D9CA3"/>
<path d="M60.0783 82.8437L60.4091 81.4817C60.468 80.9794 60.5223 80.5075 60.5725 80.0648C48.931 77.0463 37.2839 74.0565 25.6282 71.0962C23.28 70.655 20.9299 70.2449 18.5784 69.8645C18.4148 69.634 18.2444 69.4318 18.0667 69.2595L17.8959 69.218C17.8662 69.34 17.8294 69.4918 17.7856 69.672C17.6323 69.9605 17.4796 70.2463 17.3263 70.5291C17.1894 70.945 17.0439 71.3904 16.8925 71.866C16.8221 72.3038 16.746 72.7704 16.6614 73.2665C16.9268 73.6567 17.1962 74.0421 17.4694 74.4242C19.7475 75.1067 22.0239 75.8204 24.2988 76.5638L59.2272 85.0478C59.3846 84.7661 59.5336 84.4837 59.6751 84.2023C59.818 83.7204 59.9522 83.268 60.0756 82.843L60.0783 82.8437Z" fill="#4BE175"/>
<path d="M62.7374 93.1919C62.5543 93.0179 62.3994 92.8109 62.2723 92.5719C62.0852 92.5089 61.9132 92.4319 61.7553 92.3369C58.7444 90.2757 55.6342 88.2445 52.4262 86.244C43.4856 80.354 37.7939 78.9428 35.3521 82.012C34.7386 82.8245 34.4606 83.6439 34.5172 84.4742C34.588 85.5476 34.7429 86.2037 34.9833 86.4429C36.9851 91.1167 40.35 94.8819 45.0804 97.7399C49.2582 100.256 52.7304 102.982 55.4958 105.918C56.3278 106.818 57.096 107.779 57.7969 108.805C57.9491 109.106 58.0742 109.353 58.1739 109.545C58.3301 109.735 58.5216 109.987 58.7496 110.301C58.8238 110.415 58.9031 110.537 58.9885 110.67C58.9562 110.803 58.9185 110.934 58.8754 111.065C62.663 120.67 64.3074 121.515 63.807 113.603L74.815 92.1289L69.6912 86.8786C67.0935 89.8453 65.295 92.1569 64.2968 93.8139C64.1246 93.7609 63.9443 93.7059 63.7555 93.6499C63.5738 93.5889 63.3887 93.5289 63.2 93.4729C63.0115 93.4159 62.8577 93.3229 62.7374 93.1919Z" fill="#BE823B"/>
<path d="M48.1943 87.4697C48.2194 87.1184 47.8523 86.6031 47.0915 85.9246C46.3283 85.2499 44.9818 84.5899 43.0516 83.946C40.485 83.0686 38.2373 82.2427 36.3059 81.4679C35.5828 81.1775 34.8535 80.907 34.1205 80.6573C34.1066 80.6969 34.0931 80.741 34.0809 80.7911C33.9097 81.4958 33.9699 82.3528 34.2604 83.3605C34.6135 84.5656 36.2319 86.3393 39.1175 88.6805C39.3732 88.8861 39.6198 89.0823 39.8571 89.2692C40.4402 89.5686 40.9781 89.8356 41.4708 90.07L41.4808 90.0582C41.5029 90.0679 41.526 90.0791 41.5521 90.0898L41.5907 90.049C42.1256 90.3698 42.5819 90.5883 42.9598 90.7045L43.1631 90.7538C43.403 90.8121 43.6134 90.8201 43.7958 90.7783C44.4763 90.6178 45.1738 90.3811 45.8915 90.0675C46.1541 89.9491 46.4155 89.783 46.6728 89.5685C47.1142 89.1691 47.5638 88.5766 48.0223 87.7939C48.0724 87.7056 48.1205 87.614 48.1676 87.5206C48.1776 87.503 48.186 87.4863 48.1943 87.4697ZM47.4791 83.7083C47.3831 83.6132 47.2943 83.5242 47.2135 83.4429L47.1901 83.4803L47.1866 83.4651L47.2084 83.4345C45.6045 82.4752 44.0208 81.4505 42.4593 80.3579C41.95 80.0147 41.4167 79.7172 40.8603 79.4673L39.2073 78.8576L39.1261 78.8379C38.7745 78.7669 38.4432 78.7366 38.1293 78.7465C37.2942 78.7402 36.5875 78.8197 36.0119 78.9856C37.028 79.4519 38.0345 79.9461 39.032 80.4654C40.8972 81.4537 42.7405 82.4497 44.5635 83.4522C45.9055 84.19 47.2419 84.9093 48.5742 85.6103C48.5728 85.5569 48.5661 85.5079 48.5529 85.4616L48.518 85.5464C48.3651 84.8348 48.0187 84.2225 47.4791 83.7083Z" fill="#2F8DBA"/>
<path d="M47.0915 85.9247C47.8524 86.6032 48.2194 87.1185 48.1943 87.4698C48.2518 87.3632 48.3002 87.2644 48.3378 87.1746C48.5645 86.6369 48.6425 86.1149 48.5742 85.6104C47.242 84.9094 45.9055 84.1901 44.5636 83.4523C42.7405 82.4498 40.8973 81.4538 39.0321 80.4655C38.0345 79.9462 37.0281 79.452 36.0119 78.9856C35.2327 79.1982 34.6903 79.5645 34.3822 80.0823C34.2725 80.2566 34.1858 80.4479 34.1206 80.6573C34.8535 80.9071 35.5829 81.1776 36.3059 81.468C38.2373 82.2428 40.485 83.0686 43.0516 83.9461C44.9818 84.59 46.3284 85.2499 47.0915 85.9247Z" fill="#96D3F0"/>
<path d="M52.3148 102.15C51.0753 101.303 49.1502 100.054 46.5388 98.4031C48.4465 99.7781 50.3357 101.175 52.2065 102.596C53.6661 103.824 54.9838 105.187 56.1628 106.685L56.1313 106.779C56.5598 107.378 56.9556 108 57.3225 108.646C57.7551 109.4 58.162 110.164 58.5447 110.94L62.8218 121.726C63.3748 122.835 63.9902 123.912 64.6675 124.957C64.8516 125.216 65.0375 125.46 65.2227 125.69C65.3175 125.696 65.4007 125.655 65.4725 125.566C65.5379 125.48 65.5657 125.389 65.5566 125.291C65.5461 125.192 65.2729 124.491 64.7362 123.186C64.5952 122.839 64.4381 122.469 64.2636 122.076C63.5472 120.654 62.9077 119.198 62.3484 117.708C61.2591 114.79 60.1481 111.884 59.0197 108.991C58.4004 107.877 57.5656 106.8 56.5165 105.761L56.4929 105.822L56.5084 105.759C56.332 105.592 56.1496 105.428 55.9628 105.263C54.7588 104.211 53.544 103.174 52.3172 102.152M58.5493 90.0654C58.4526 90.115 58.4208 90.2106 58.4535 90.3535C58.4706 90.4251 58.5256 90.5174 58.6228 90.6314C58.8268 90.8848 59.0139 91.101 59.1812 91.2808C59.8005 91.8801 60.4632 92.4131 61.1712 92.8781C63.8257 94.6521 66.6883 95.9411 69.7598 96.7431C70.1951 96.8421 70.6128 96.9061 71.0111 96.9381C71.2152 96.9551 71.3506 96.9171 71.4173 96.8261C71.4944 96.7151 71.4821 96.5951 71.3794 96.4621C71.3231 96.3931 71.2144 96.3201 71.0525 96.2481C70.7526 96.1121 70.3989 95.9611 69.9898 95.7961C69.0167 95.4311 68.0422 95.0651 67.069 94.6991C64.2618 93.7131 61.7076 92.2651 59.407 90.3512L58.9 90.1104C58.7385 90.0367 58.6201 90.0223 58.5477 90.0664L58.5493 90.0654Z" fill="#1F0800"/>
<path d="M52.1405 19.7071C45.9895 18.213 40.2135 19.1104 34.812 22.4007C29.4122 25.69 25.9637 30.4105 24.4693 36.5627C22.9753 42.7137 23.8727 48.4897 27.163 53.8912C30.4523 59.291 35.1727 62.7395 41.325 64.2339C47.4773 65.7283 53.2521 64.8305 58.6536 61.5402C64.0534 58.2509 67.5018 53.5305 68.9962 47.3782C70.4902 41.2273 69.5928 35.4512 66.3025 30.0497C63.0122 24.6482 58.2928 21.2014 52.1405 19.7071Z" fill="white"/>
<path d="M31.9843 37.7019C29.9654 46.0134 35.8992 52.7568 44.6346 54.8786C52.6179 56.8177 60.1166 52.6138 61.2345 48.0113C62.2833 43.6937 60.0275 40.9405 57.0144 37.7367C54.3052 34.8566 52.9601 29.6828 46.34 28.0748C38.9023 26.2682 33.3672 32.0084 31.9843 37.7019Z" fill="url(#paint0_linear_0_1)"/>
<path d="M49.9755 40.183C50.6424 40.345 51.3111 39.9354 51.4728 39.2697C51.634 38.606 51.2276 37.9357 50.5607 37.7737C49.8968 37.6124 49.2274 38.0214 49.0661 38.6852C48.9042 39.3508 49.3113 40.0217 49.9755 40.183ZM49.7743 41.079C49.0975 40.9147 48.1552 42.3915 47.6728 44.3777C47.1902 46.3646 47.3503 48.1079 48.0271 48.2723C48.7044 48.4368 49.6442 46.9605 50.1267 44.9738C50.6092 42.9876 50.4517 41.2436 49.7743 41.079ZM44.3056 39.7465C42.2888 39.2566 40.5599 40.5271 40.074 42.5278C39.5872 44.5316 40.5412 46.4513 42.558 46.9412C44.5696 47.4298 46.2964 46.1613 46.7832 44.1574C47.2691 42.1567 46.3172 40.2351 44.3056 39.7465ZM42.9699 45.2457C42.0449 45.021 41.7637 43.9468 41.9978 42.9831C42.2315 42.0209 42.9677 41.2218 43.8927 41.4464C44.8143 41.6703 45.1008 42.718 44.8671 43.6801C44.6331 44.6435 43.8915 45.4695 42.9699 45.2457Z" fill="white"/>
<g filter="url(#filter0_d_0_1)">
<path d="M217 20.686H100C93.3726 20.686 88 26.0586 88 32.686V59.686C88 66.3135 93.3726 71.686 100 71.686H217C223.627 71.686 229 66.3135 229 59.686V32.686C229 26.0586 223.627 20.686 217 20.686Z" fill="white"/>
<path d="M74.5 55.1862C82.13 52.5673 88 46.6861 88 38.6862C94.5 37.6861 91 59.6862 91 59.6862C83.075 60.9039 79.9622 58.9151 74.5 55.1862Z" fill="white"/>
</g>
<path d="M97.862 37.6881C97.862 38.1921 97.927 38.6914 98.058 39.1861C98.189 39.6714 98.394 40.1102 98.674 40.5022C98.954 40.8942 99.313 41.2115 99.752 41.4542C100.191 41.6875 100.713 41.8041 101.32 41.8041C101.927 41.8041 102.449 41.6875 102.888 41.4542C103.327 41.2115 103.686 40.8942 103.966 40.5022C104.246 40.1102 104.451 39.6714 104.582 39.1861C104.713 38.6914 104.778 38.1921 104.778 37.6881C104.778 37.1841 104.713 36.6895 104.582 36.2042C104.451 35.7095 104.246 35.2661 103.966 34.8741C103.686 34.4821 103.327 34.1694 102.888 33.9361C102.449 33.6934 101.927 33.5722 101.32 33.5722C100.713 33.5722 100.191 33.6934 99.752 33.9361C99.313 34.1694 98.954 34.4821 98.674 34.8741C98.394 35.2661 98.189 35.7095 98.058 36.2042C97.927 36.6895 97.862 37.1841 97.862 37.6881ZM96.532 37.6881C96.532 37.0068 96.63 36.3534 96.826 35.7281C97.031 35.0934 97.335 34.5334 97.736 34.0481C98.137 33.5628 98.637 33.1755 99.234 32.8862C99.831 32.5969 100.527 32.4521 101.32 32.4521C102.113 32.4521 102.809 32.5969 103.406 32.8862C104.003 33.1755 104.503 33.5628 104.904 34.0481C105.305 34.5334 105.604 35.0934 105.8 35.7281C106.005 36.3534 106.108 37.0068 106.108 37.6881C106.108 38.3694 106.005 39.0275 105.8 39.6622C105.604 40.2875 105.305 40.8428 104.904 41.3281C104.503 41.8134 104.003 42.2009 103.406 42.4902C102.809 42.7702 102.113 42.9101 101.32 42.9101C100.527 42.9101 99.831 42.7702 99.234 42.4902C98.637 42.2009 98.137 41.8134 97.736 41.3281C97.335 40.8428 97.031 40.2875 96.826 39.6622C96.63 39.0275 96.532 38.3694 96.532 37.6881ZM108.793 34.1461H107.603V32.6902H108.793V34.1461ZM107.603 35.4482H108.793V42.6861H107.603V35.4482Z" fill="#1F1F1F"/>
<path d="M97.5961 56.4021C97.5961 56.8341 97.6521 57.262 97.7641 57.686C97.8761 58.102 98.0521 58.478 98.2921 58.814C98.5321 59.15 98.8401 59.422 99.2161 59.63C99.5921 59.83 100.04 59.93 100.56 59.93C101.08 59.93 101.528 59.83 101.904 59.63C102.28 59.422 102.588 59.15 102.828 58.814C103.068 58.478 103.244 58.102 103.356 57.686C103.468 57.262 103.524 56.8341 103.524 56.4021C103.524 55.97 103.468 55.546 103.356 55.13C103.244 54.706 103.068 54.326 102.828 53.99C102.588 53.654 102.28 53.386 101.904 53.186C101.528 52.978 101.08 52.874 100.56 52.874C100.04 52.874 99.5921 52.978 99.2161 53.186C98.8401 53.386 98.5321 53.654 98.2921 53.99C98.0521 54.326 97.8761 54.706 97.7641 55.13C97.6521 55.546 97.5961 55.97 97.5961 56.4021ZM96.4561 56.4021C96.4561 55.818 96.5401 55.258 96.7081 54.722C96.8841 54.178 97.1441 53.698 97.4881 53.282C97.8321 52.866 98.2601 52.534 98.7721 52.286C99.2841 52.038 99.8801 51.914 100.56 51.914C101.24 51.914 101.836 52.038 102.348 52.286C102.86 52.534 103.288 52.866 103.632 53.282C103.976 53.698 104.232 54.178 104.4 54.722C104.576 55.258 104.664 55.818 104.664 56.4021C104.664 56.9861 104.576 57.55 104.4 58.094C104.232 58.63 103.976 59.106 103.632 59.522C103.288 59.938 102.86 60.27 102.348 60.518C101.836 60.758 101.24 60.878 100.56 60.878C99.8801 60.878 99.2841 60.758 98.7721 60.518C98.2601 60.27 97.8321 59.938 97.4881 59.522C97.1441 59.106 96.8841 58.63 96.7081 58.094C96.5401 57.55 96.4561 56.9861 96.4561 56.4021ZM105.945 52.118H106.965V60.686H105.945V52.118ZM114.041 60.662C113.865 60.766 113.621 60.8181 113.309 60.8181C113.045 60.8181 112.833 60.746 112.673 60.602C112.521 60.45 112.445 60.206 112.445 59.87C112.165 60.206 111.837 60.45 111.461 60.602C111.093 60.746 110.693 60.8181 110.261 60.8181C109.981 60.8181 109.713 60.786 109.457 60.722C109.209 60.658 108.993 60.558 108.809 60.422C108.625 60.286 108.477 60.11 108.365 59.894C108.261 59.67 108.209 59.402 108.209 59.09C108.209 58.738 108.269 58.45 108.389 58.226C108.509 58.002 108.665 57.822 108.857 57.686C109.057 57.542 109.281 57.434 109.529 57.362C109.785 57.29 110.045 57.23 110.309 57.182C110.589 57.126 110.853 57.086 111.101 57.062C111.357 57.03 111.581 56.99 111.773 56.942C111.965 56.886 112.117 56.81 112.229 56.714C112.341 56.61 112.397 56.462 112.397 56.27C112.397 56.046 112.353 55.866 112.265 55.73C112.185 55.594 112.077 55.49 111.941 55.418C111.813 55.346 111.665 55.298 111.497 55.274C111.337 55.25 111.177 55.238 111.017 55.238C110.585 55.238 110.225 55.322 109.937 55.49C109.649 55.65 109.493 55.958 109.469 56.414H108.449C108.465 56.03 108.545 55.706 108.689 55.442C108.833 55.178 109.025 54.966 109.265 54.806C109.505 54.638 109.777 54.518 110.081 54.446C110.393 54.374 110.725 54.338 111.077 54.338C111.357 54.338 111.633 54.358 111.905 54.398C112.185 54.438 112.437 54.522 112.661 54.65C112.885 54.77 113.065 54.942 113.201 55.166C113.337 55.39 113.405 55.682 113.405 56.042V59.234C113.405 59.474 113.417 59.65 113.441 59.762C113.473 59.874 113.569 59.93 113.729 59.93C113.817 59.93 113.921 59.91 114.041 59.87V60.662ZM112.385 57.482C112.257 57.578 112.089 57.65 111.881 57.698C111.673 57.738 111.453 57.774 111.221 57.806C110.997 57.83 110.769 57.8621 110.537 57.9021C110.305 57.9341 110.097 57.99 109.913 58.07C109.729 58.15 109.577 58.266 109.457 58.418C109.345 58.562 109.289 58.762 109.289 59.018C109.289 59.186 109.321 59.33 109.385 59.45C109.457 59.562 109.545 59.654 109.649 59.726C109.761 59.798 109.889 59.85 110.033 59.882C110.177 59.914 110.329 59.93 110.489 59.93C110.825 59.93 111.113 59.886 111.353 59.798C111.593 59.702 111.789 59.586 111.941 59.45C112.093 59.306 112.205 59.154 112.277 58.994C112.349 58.826 112.385 58.67 112.385 58.526V57.482ZM112.733 51.446L111.041 53.39H110.273L111.425 51.446H112.733ZM115.111 59.354H116.443V60.686H115.111V59.354ZM116.347 54.758L116.047 58.49H115.507L115.207 54.758V52.118H116.347V54.758ZM126.56 54.626C126.496 54.01 126.272 53.566 125.888 53.294C125.512 53.014 125.028 52.874 124.436 52.874C124.196 52.874 123.96 52.898 123.728 52.946C123.496 52.994 123.288 53.074 123.104 53.186C122.928 53.298 122.784 53.45 122.672 53.642C122.568 53.826 122.516 54.058 122.516 54.338C122.516 54.602 122.592 54.818 122.744 54.986C122.904 55.146 123.112 55.278 123.368 55.382C123.632 55.486 123.928 55.574 124.256 55.646C124.584 55.71 124.916 55.782 125.252 55.862C125.596 55.942 125.932 56.038 126.26 56.15C126.588 56.254 126.88 56.3981 127.136 56.5821C127.4 56.7661 127.608 56.998 127.76 57.278C127.92 57.558 128 57.91 128 58.334C128 58.79 127.896 59.182 127.688 59.51C127.488 59.83 127.228 60.094 126.908 60.302C126.588 60.502 126.228 60.646 125.828 60.734C125.436 60.83 125.044 60.878 124.652 60.878C124.172 60.878 123.716 60.818 123.284 60.698C122.86 60.578 122.484 60.398 122.156 60.158C121.836 59.91 121.58 59.5981 121.388 59.222C121.204 58.838 121.112 58.386 121.112 57.866H122.192C122.192 58.226 122.26 58.538 122.396 58.802C122.54 59.058 122.724 59.27 122.948 59.438C123.18 59.606 123.448 59.73 123.752 59.81C124.056 59.89 124.368 59.93 124.688 59.93C124.944 59.93 125.2 59.906 125.456 59.858C125.72 59.81 125.956 59.73 126.164 59.618C126.372 59.498 126.54 59.338 126.668 59.1381C126.796 58.9381 126.86 58.682 126.86 58.37C126.86 58.074 126.78 57.834 126.62 57.65C126.468 57.466 126.26 57.318 125.996 57.206C125.74 57.086 125.448 56.99 125.12 56.918C124.792 56.846 124.456 56.774 124.112 56.702C123.776 56.622 123.444 56.534 123.116 56.438C122.788 56.334 122.492 56.202 122.228 56.042C121.972 55.874 121.764 55.662 121.604 55.406C121.452 55.142 121.376 54.814 121.376 54.422C121.376 53.99 121.464 53.618 121.64 53.306C121.816 52.986 122.048 52.726 122.336 52.526C122.632 52.318 122.964 52.166 123.332 52.07C123.708 51.966 124.092 51.914 124.484 51.914C124.924 51.914 125.332 51.966 125.708 52.07C126.084 52.174 126.412 52.338 126.692 52.562C126.98 52.786 127.204 53.07 127.364 53.414C127.532 53.75 127.624 54.154 127.64 54.626H126.56ZM129.961 57.59C129.961 57.966 130.009 58.302 130.105 58.598C130.209 58.886 130.349 59.13 130.525 59.33C130.701 59.522 130.905 59.67 131.137 59.774C131.377 59.878 131.629 59.93 131.893 59.93C132.157 59.93 132.405 59.878 132.637 59.774C132.877 59.67 133.085 59.522 133.261 59.33C133.437 59.13 133.573 58.886 133.669 58.598C133.773 58.302 133.825 57.966 133.825 57.59C133.825 57.214 133.773 56.882 133.669 56.594C133.573 56.298 133.437 56.05 133.261 55.85C133.085 55.65 132.877 55.498 132.637 55.394C132.405 55.29 132.157 55.238 131.893 55.238C131.629 55.238 131.377 55.29 131.137 55.394C130.905 55.498 130.701 55.65 130.525 55.85C130.349 56.05 130.209 56.298 130.105 56.594C130.009 56.882 129.961 57.214 129.961 57.59ZM128.881 57.59C128.881 57.134 128.945 56.7101 129.073 56.3181C129.201 55.9181 129.393 55.574 129.649 55.286C129.905 54.99 130.221 54.758 130.597 54.59C130.973 54.422 131.405 54.338 131.893 54.338C132.389 54.338 132.821 54.422 133.189 54.59C133.565 54.758 133.881 54.99 134.137 55.286C134.393 55.574 134.585 55.9181 134.713 56.3181C134.841 56.7101 134.905 57.134 134.905 57.59C134.905 58.046 134.841 58.47 134.713 58.862C134.585 59.254 134.393 59.598 134.137 59.894C133.881 60.182 133.565 60.41 133.189 60.578C132.821 60.738 132.389 60.8181 131.893 60.8181C131.405 60.8181 130.973 60.738 130.597 60.578C130.221 60.41 129.905 60.182 129.649 59.894C129.393 59.598 129.201 59.254 129.073 58.862C128.945 58.47 128.881 58.046 128.881 57.59ZM141.244 60.686H140.284V59.702H140.26C140.044 60.086 139.768 60.37 139.432 60.554C139.096 60.73 138.7 60.8181 138.244 60.8181C137.836 60.8181 137.496 60.766 137.224 60.662C136.952 60.55 136.732 60.394 136.564 60.194C136.396 59.9941 136.276 59.758 136.204 59.486C136.14 59.206 136.108 58.898 136.108 58.562V54.482H137.128V58.682C137.128 59.066 137.24 59.37 137.464 59.594C137.688 59.818 137.996 59.93 138.388 59.93C138.7 59.93 138.968 59.882 139.192 59.786C139.424 59.69 139.616 59.554 139.768 59.378C139.92 59.202 140.032 58.998 140.104 58.766C140.184 58.526 140.224 58.266 140.224 57.986V54.482H141.244V60.686ZM146.86 57.59C146.86 57.966 146.908 58.302 147.004 58.598C147.108 58.886 147.248 59.13 147.424 59.33C147.6 59.522 147.804 59.67 148.036 59.774C148.276 59.878 148.528 59.93 148.792 59.93C149.056 59.93 149.304 59.878 149.536 59.774C149.776 59.67 149.984 59.522 150.16 59.33C150.336 59.13 150.472 58.886 150.568 58.598C150.672 58.302 150.724 57.966 150.724 57.59C150.724 57.214 150.672 56.882 150.568 56.594C150.472 56.298 150.336 56.05 150.16 55.85C149.984 55.65 149.776 55.498 149.536 55.394C149.304 55.29 149.056 55.238 148.792 55.238C148.528 55.238 148.276 55.29 148.036 55.394C147.804 55.498 147.6 55.65 147.424 55.85C147.248 56.05 147.108 56.298 147.004 56.594C146.908 56.882 146.86 57.214 146.86 57.59ZM145.78 57.59C145.78 57.134 145.844 56.7101 145.972 56.3181C146.1 55.9181 146.292 55.574 146.548 55.286C146.804 54.99 147.12 54.758 147.496 54.59C147.872 54.422 148.304 54.338 148.792 54.338C149.288 54.338 149.72 54.422 150.088 54.59C150.464 54.758 150.78 54.99 151.036 55.286C151.292 55.574 151.484 55.9181 151.612 56.3181C151.74 56.7101 151.804 57.134 151.804 57.59C151.804 58.046 151.74 58.47 151.612 58.862C151.484 59.254 151.292 59.598 151.036 59.894C150.78 60.182 150.464 60.41 150.088 60.578C149.72 60.738 149.288 60.8181 148.792 60.8181C148.304 60.8181 147.872 60.738 147.496 60.578C147.12 60.41 146.804 60.182 146.548 59.894C146.292 59.598 146.1 59.254 145.972 58.862C145.844 58.47 145.78 58.046 145.78 57.59ZM161.842 60.662C161.666 60.766 161.422 60.8181 161.11 60.8181C160.846 60.8181 160.634 60.746 160.474 60.602C160.322 60.45 160.246 60.206 160.246 59.87C159.966 60.206 159.638 60.45 159.262 60.602C158.894 60.746 158.494 60.8181 158.062 60.8181C157.782 60.8181 157.514 60.786 157.258 60.722C157.01 60.658 156.794 60.558 156.61 60.422C156.426 60.286 156.278 60.11 156.166 59.894C156.062 59.67 156.01 59.402 156.01 59.09C156.01 58.738 156.07 58.45 156.19 58.226C156.31 58.002 156.466 57.822 156.658 57.686C156.858 57.542 157.082 57.434 157.33 57.362C157.586 57.29 157.846 57.23 158.11 57.182C158.39 57.126 158.654 57.086 158.902 57.062C159.158 57.03 159.382 56.99 159.574 56.942C159.766 56.886 159.918 56.81 160.03 56.714C160.142 56.61 160.198 56.462 160.198 56.27C160.198 56.046 160.154 55.866 160.066 55.73C159.986 55.594 159.878 55.49 159.742 55.418C159.614 55.346 159.466 55.298 159.298 55.274C159.138 55.25 158.978 55.238 158.818 55.238C158.386 55.238 158.026 55.322 157.738 55.49C157.45 55.65 157.294 55.958 157.27 56.414H156.25C156.266 56.03 156.346 55.706 156.49 55.442C156.634 55.178 156.826 54.966 157.066 54.806C157.306 54.638 157.578 54.518 157.882 54.446C158.194 54.374 158.526 54.338 158.878 54.338C159.158 54.338 159.434 54.358 159.706 54.398C159.986 54.438 160.238 54.522 160.462 54.65C160.686 54.77 160.866 54.942 161.002 55.166C161.138 55.39 161.206 55.682 161.206 56.042V59.234C161.206 59.474 161.218 59.65 161.242 59.762C161.274 59.874 161.37 59.93 161.53 59.93C161.618 59.93 161.722 59.91 161.842 59.87V60.662ZM160.186 57.482C160.058 57.578 159.89 57.65 159.682 57.698C159.474 57.738 159.254 57.774 159.022 57.806C158.798 57.83 158.57 57.8621 158.338 57.9021C158.106 57.9341 157.898 57.99 157.714 58.07C157.53 58.15 157.378 58.266 157.258 58.418C157.146 58.562 157.09 58.762 157.09 59.018C157.09 59.186 157.122 59.33 157.186 59.45C157.258 59.562 157.346 59.654 157.45 59.726C157.562 59.798 157.69 59.85 157.834 59.882C157.978 59.914 158.13 59.93 158.29 59.93C158.626 59.93 158.914 59.886 159.154 59.798C159.394 59.702 159.59 59.586 159.742 59.45C159.894 59.306 160.006 59.154 160.078 58.994C160.15 58.826 160.186 58.67 160.186 58.526V57.482ZM163.415 58.73C163.423 58.954 163.475 59.146 163.571 59.306C163.667 59.458 163.791 59.582 163.943 59.678C164.103 59.766 164.279 59.83 164.471 59.87C164.671 59.91 164.875 59.93 165.083 59.93C165.243 59.93 165.411 59.918 165.587 59.894C165.763 59.87 165.923 59.826 166.067 59.762C166.219 59.698 166.343 59.606 166.439 59.486C166.535 59.358 166.583 59.198 166.583 59.006C166.583 58.742 166.483 58.542 166.283 58.406C166.083 58.27 165.831 58.1621 165.527 58.0821C165.231 57.9941 164.907 57.918 164.555 57.854C164.203 57.782 163.875 57.686 163.571 57.566C163.275 57.438 163.027 57.262 162.827 57.038C162.627 56.814 162.527 56.502 162.527 56.102C162.527 55.79 162.595 55.522 162.731 55.298C162.875 55.074 163.055 54.894 163.271 54.758C163.495 54.614 163.743 54.51 164.015 54.446C164.295 54.374 164.571 54.338 164.843 54.338C165.195 54.338 165.519 54.37 165.815 54.434C166.111 54.49 166.371 54.594 166.595 54.746C166.827 54.89 167.011 55.09 167.147 55.346C167.283 55.594 167.363 55.906 167.387 56.282H166.367C166.351 56.082 166.299 55.918 166.211 55.79C166.123 55.654 166.011 55.546 165.875 55.466C165.739 55.386 165.587 55.33 165.419 55.298C165.259 55.258 165.095 55.238 164.927 55.238C164.775 55.238 164.619 55.25 164.459 55.274C164.307 55.298 164.167 55.342 164.039 55.406C163.911 55.462 163.807 55.542 163.727 55.646C163.647 55.742 163.607 55.87 163.607 56.03C163.607 56.206 163.667 56.354 163.787 56.474C163.915 56.586 164.075 56.682 164.267 56.762C164.459 56.834 164.675 56.898 164.915 56.954C165.155 57.002 165.395 57.054 165.635 57.1101C165.891 57.1661 166.139 57.234 166.379 57.314C166.627 57.394 166.843 57.502 167.027 57.6381C167.219 57.766 167.371 57.93 167.483 58.13C167.603 58.33 167.663 58.5781 167.663 58.8741C167.663 59.2501 167.583 59.562 167.423 59.81C167.271 60.058 167.067 60.258 166.811 60.41C166.563 60.562 166.279 60.666 165.959 60.722C165.647 60.786 165.335 60.8181 165.023 60.8181C164.679 60.8181 164.351 60.782 164.039 60.71C163.727 60.638 163.451 60.522 163.211 60.362C162.971 60.194 162.779 59.978 162.635 59.714C162.491 59.442 162.411 59.114 162.395 58.73H163.415ZM169.415 58.73C169.423 58.954 169.475 59.146 169.571 59.306C169.667 59.458 169.791 59.582 169.943 59.678C170.103 59.766 170.279 59.83 170.471 59.87C170.671 59.91 170.875 59.93 171.083 59.93C171.243 59.93 171.411 59.918 171.587 59.894C171.763 59.87 171.923 59.826 172.067 59.762C172.219 59.698 172.343 59.606 172.439 59.486C172.535 59.358 172.583 59.198 172.583 59.006C172.583 58.742 172.483 58.542 172.283 58.406C172.083 58.27 171.831 58.1621 171.527 58.0821C171.231 57.9941 170.907 57.918 170.555 57.854C170.203 57.782 169.875 57.686 169.571 57.566C169.275 57.438 169.027 57.262 168.827 57.038C168.627 56.814 168.527 56.502 168.527 56.102C168.527 55.79 168.595 55.522 168.731 55.298C168.875 55.074 169.055 54.894 169.271 54.758C169.495 54.614 169.743 54.51 170.015 54.446C170.295 54.374 170.571 54.338 170.843 54.338C171.195 54.338 171.519 54.37 171.815 54.434C172.111 54.49 172.371 54.594 172.595 54.746C172.827 54.89 173.011 55.09 173.147 55.346C173.283 55.594 173.363 55.906 173.387 56.282H172.367C172.351 56.082 172.299 55.918 172.211 55.79C172.123 55.654 172.011 55.546 171.875 55.466C171.739 55.386 171.587 55.33 171.419 55.298C171.259 55.258 171.095 55.238 170.927 55.238C170.775 55.238 170.619 55.25 170.459 55.274C170.307 55.298 170.167 55.342 170.039 55.406C169.911 55.462 169.807 55.542 169.727 55.646C169.647 55.742 169.607 55.87 169.607 56.03C169.607 56.206 169.667 56.354 169.787 56.474C169.915 56.586 170.075 56.682 170.267 56.762C170.459 56.834 170.675 56.898 170.915 56.954C171.155 57.002 171.395 57.054 171.635 57.1101C171.891 57.1661 172.139 57.234 172.379 57.314C172.627 57.394 172.843 57.502 173.027 57.6381C173.219 57.766 173.371 57.93 173.483 58.13C173.603 58.33 173.663 58.5781 173.663 58.8741C173.663 59.2501 173.583 59.562 173.423 59.81C173.271 60.058 173.067 60.258 172.811 60.41C172.563 60.562 172.279 60.666 171.959 60.722C171.647 60.786 171.335 60.8181 171.023 60.8181C170.679 60.8181 170.351 60.782 170.039 60.71C169.727 60.638 169.451 60.522 169.211 60.362C168.971 60.194 168.779 59.978 168.635 59.714C168.491 59.442 168.411 59.114 168.395 58.73H169.415ZM175.871 53.366H174.851V52.118H175.871V53.366ZM174.851 54.482H175.871V60.686H174.851V54.482ZM178.076 58.73C178.084 58.954 178.136 59.146 178.232 59.306C178.328 59.458 178.452 59.582 178.604 59.678C178.764 59.766 178.94 59.83 179.132 59.87C179.332 59.91 179.536 59.93 179.744 59.93C179.904 59.93 180.072 59.918 180.248 59.894C180.424 59.87 180.584 59.826 180.728 59.762C180.88 59.698 181.004 59.606 181.1 59.486C181.196 59.358 181.244 59.198 181.244 59.006C181.244 58.742 181.144 58.542 180.944 58.406C180.744 58.27 180.492 58.1621 180.188 58.0821C179.892 57.9941 179.568 57.918 179.216 57.854C178.864 57.782 178.536 57.686 178.232 57.566C177.936 57.438 177.688 57.262 177.488 57.038C177.288 56.814 177.188 56.502 177.188 56.102C177.188 55.79 177.256 55.522 177.392 55.298C177.536 55.074 177.716 54.894 177.932 54.758C178.156 54.614 178.404 54.51 178.676 54.446C178.956 54.374 179.232 54.338 179.504 54.338C179.856 54.338 180.18 54.37 180.476 54.434C180.772 54.49 181.032 54.594 181.256 54.746C181.488 54.89 181.672 55.09 181.808 55.346C181.944 55.594 182.024 55.906 182.048 56.282H181.028C181.012 56.082 180.96 55.918 180.872 55.79C180.784 55.654 180.672 55.546 180.536 55.466C180.4 55.386 180.248 55.33 180.08 55.298C179.92 55.258 179.756 55.238 179.588 55.238C179.436 55.238 179.28 55.25 179.12 55.274C178.968 55.298 178.828 55.342 178.7 55.406C178.572 55.462 178.468 55.542 178.388 55.646C178.308 55.742 178.268 55.87 178.268 56.03C178.268 56.206 178.328 56.354 178.448 56.474C178.576 56.586 178.736 56.682 178.928 56.762C179.12 56.834 179.336 56.898 179.576 56.954C179.816 57.002 180.056 57.054 180.296 57.1101C180.552 57.1661 180.8 57.234 181.04 57.314C181.288 57.394 181.504 57.502 181.688 57.6381C181.88 57.766 182.032 57.93 182.144 58.13C182.264 58.33 182.324 58.5781 182.324 58.8741C182.324 59.2501 182.244 59.562 182.084 59.81C181.932 60.058 181.728 60.258 181.472 60.41C181.224 60.562 180.94 60.666 180.62 60.722C180.308 60.786 179.996 60.8181 179.684 60.8181C179.34 60.8181 179.012 60.782 178.7 60.71C178.388 60.638 178.112 60.522 177.872 60.362C177.632 60.194 177.44 59.978 177.296 59.714C177.152 59.442 177.072 59.114 177.056 58.73H178.076ZM184.868 54.482H186.104V55.382H184.868V59.234C184.868 59.354 184.876 59.45 184.892 59.522C184.916 59.594 184.956 59.65 185.012 59.69C185.068 59.73 185.144 59.758 185.24 59.774C185.344 59.782 185.476 59.786 185.636 59.786H186.104V60.686H185.324C185.06 60.686 184.832 60.67 184.64 60.6381C184.456 60.5981 184.304 60.53 184.184 60.434C184.072 60.338 183.988 60.202 183.932 60.026C183.876 59.85 183.848 59.618 183.848 59.33V55.382H182.792V54.482H183.848V52.622H184.868V54.482ZM191.545 56.99C191.529 56.75 191.473 56.522 191.377 56.306C191.289 56.09 191.165 55.906 191.005 55.754C190.853 55.594 190.669 55.47 190.453 55.382C190.245 55.286 190.013 55.238 189.757 55.238C189.493 55.238 189.253 55.286 189.037 55.382C188.829 55.47 188.649 55.594 188.497 55.754C188.345 55.914 188.225 56.1021 188.137 56.3181C188.049 56.5261 187.997 56.75 187.981 56.99H191.545ZM192.529 58.718C192.393 59.414 192.093 59.938 191.629 60.29C191.165 60.642 190.581 60.8181 189.877 60.8181C189.381 60.8181 188.949 60.738 188.581 60.578C188.221 60.418 187.917 60.194 187.669 59.906C187.421 59.618 187.233 59.2741 187.105 58.8741C186.985 58.4741 186.917 58.038 186.901 57.566C186.901 57.094 186.973 56.662 187.117 56.27C187.261 55.878 187.461 55.538 187.717 55.25C187.981 54.962 188.289 54.738 188.641 54.578C189.001 54.418 189.393 54.338 189.817 54.338C190.369 54.338 190.825 54.454 191.185 54.686C191.553 54.91 191.845 55.198 192.061 55.55C192.285 55.902 192.437 56.286 192.517 56.702C192.605 57.118 192.641 57.514 192.625 57.89H187.981C187.973 58.162 188.005 58.422 188.077 58.67C188.149 58.91 188.265 59.1261 188.425 59.3181C188.585 59.5021 188.789 59.65 189.037 59.762C189.285 59.874 189.577 59.93 189.913 59.93C190.345 59.93 190.697 59.83 190.969 59.63C191.249 59.43 191.433 59.126 191.521 58.718H192.529ZM193.682 54.482H194.642V55.466H194.666C195.09 54.714 195.762 54.338 196.682 54.338C197.09 54.338 197.43 54.394 197.702 54.506C197.974 54.618 198.194 54.774 198.362 54.974C198.53 55.174 198.646 55.414 198.71 55.694C198.782 55.966 198.818 56.27 198.818 56.606V60.686H197.798V56.486C197.798 56.102 197.686 55.798 197.462 55.574C197.238 55.35 196.93 55.238 196.538 55.238C196.226 55.238 195.954 55.286 195.722 55.382C195.498 55.478 195.31 55.614 195.158 55.79C195.006 55.966 194.89 56.174 194.81 56.414C194.738 56.646 194.702 56.902 194.702 57.182V60.686H193.682V54.482ZM201.766 54.482H203.002V55.382H201.766V59.234C201.766 59.354 201.774 59.45 201.79 59.522C201.814 59.594 201.854 59.65 201.91 59.69C201.966 59.73 202.042 59.758 202.138 59.774C202.242 59.782 202.374 59.786 202.534 59.786H203.002V60.686H202.222C201.958 60.686 201.73 60.67 201.538 60.6381C201.354 60.5981 201.202 60.53 201.082 60.434C200.97 60.338 200.886 60.202 200.83 60.026C200.774 59.85 200.746 59.618 200.746 59.33V55.382H199.69V54.482H200.746V52.622H201.766V54.482ZM208.443 56.99C208.427 56.75 208.371 56.522 208.275 56.306C208.187 56.09 208.063 55.906 207.903 55.754C207.751 55.594 207.567 55.47 207.351 55.382C207.143 55.286 206.911 55.238 206.655 55.238C206.391 55.238 206.151 55.286 205.935 55.382C205.727 55.47 205.547 55.594 205.395 55.754C205.243 55.914 205.123 56.1021 205.035 56.3181C204.947 56.5261 204.895 56.75 204.879 56.99H208.443ZM209.427 58.718C209.291 59.414 208.991 59.938 208.527 60.29C208.063 60.642 207.479 60.8181 206.775 60.8181C206.279 60.8181 205.847 60.738 205.479 60.578C205.119 60.418 204.815 60.194 204.567 59.906C204.319 59.618 204.131 59.2741 204.003 58.8741C203.883 58.4741 203.815 58.038 203.799 57.566C203.799 57.094 203.871 56.662 204.015 56.27C204.159 55.878 204.359 55.538 204.615 55.25C204.879 54.962 205.187 54.738 205.539 54.578C205.899 54.418 206.291 54.338 206.715 54.338C207.267 54.338 207.723 54.454 208.083 54.686C208.451 54.91 208.743 55.198 208.959 55.55C209.183 55.902 209.335 56.286 209.415 56.702C209.503 57.118 209.539 57.514 209.523 57.89H204.879C204.871 58.162 204.903 58.422 204.975 58.67C205.047 58.91 205.163 59.1261 205.323 59.3181C205.483 59.5021 205.687 59.65 205.935 59.762C206.183 59.874 206.475 59.93 206.811 59.93C207.243 59.93 207.595 59.83 207.867 59.63C208.147 59.43 208.331 59.126 208.419 58.718H209.427ZM219.137 59.354H220.469V60.686H219.137V59.354ZM215.141 59.354H216.473V60.686H215.141V59.354ZM211.145 59.354H212.477V60.686H211.145V59.354Z" fill="#5B6C76"/>
<path fill-rule="evenodd" clip-rule="evenodd" d="M120.796 44.1532L119.801 44.5985C119.369 44.7923 118.86 44.6558 118.582 44.2719L117.943 43.3889C117.86 43.2735 117.731 43.1991 117.589 43.1845L116.505 43.0731C116.034 43.0246 115.661 42.652 115.613 42.1805L115.502 41.0966C115.487 40.9548 115.413 40.8261 115.297 40.7426L114.414 40.1041C114.03 39.8264 113.894 39.3174 114.087 38.8848L114.533 37.8904C114.591 37.7604 114.591 37.6117 114.533 37.4816L114.087 36.4872C113.894 36.0547 114.03 35.5456 114.414 35.268L115.297 34.6294C115.413 34.5459 115.487 34.4172 115.502 34.2754L115.613 33.1915C115.661 32.7201 116.034 32.3475 116.505 32.2989L117.589 32.1875C117.731 32.173 117.86 32.0985 117.943 31.9831L118.582 31.1001C118.86 30.7162 119.369 30.5798 119.801 30.7734L120.796 31.2189C120.926 31.2771 121.074 31.2771 121.204 31.2189L122.199 30.7734C122.631 30.5798 123.14 30.7162 123.418 31.1001L124.057 31.9831C124.14 32.0985 124.269 32.173 124.411 32.1875L125.495 32.2989C125.966 32.3475 126.339 32.7201 126.387 33.1915L126.499 34.2754C126.513 34.4172 126.588 34.5459 126.703 34.6294L127.586 35.268C127.97 35.5456 128.106 36.0547 127.913 36.4872L127.467 37.4816C127.409 37.6116 127.409 37.7604 127.467 37.8904L127.913 38.8848C128.106 39.3174 127.97 39.8264 127.586 40.1041L126.703 40.7426C126.588 40.8261 126.513 40.9548 126.499 41.0966L126.387 42.1805C126.339 42.652 125.966 43.0246 125.495 43.0731L124.411 43.1845C124.269 43.1991 124.14 43.2735 124.057 43.3889L123.418 44.2719C123.14 44.6558 122.631 44.7923 122.199 44.5985L121.204 44.1532C121.074 44.095 120.926 44.095 120.796 44.1532Z" fill="#0FD555"/>
<path fill-rule="evenodd" clip-rule="evenodd" d="M119.539 40.4601C119.778 40.696 120.168 40.6751 120.381 40.415L124.242 35.6832C124.44 35.4398 124.404 35.0813 124.16 34.883C123.916 34.6846 123.558 34.721 123.359 34.9645L119.9 39.2153L118.589 37.922C118.365 37.7009 118.005 37.7032 117.784 37.9266C117.562 38.15 117.565 38.5103 117.788 38.731L119.539 40.4601Z" fill="white"/>
<defs>
<filter id="filter0_d_0_1" x="58.5" y="4.68604" width="186.5" height="83" filterUnits="userSpaceOnUse" color-interpolation-filters="sRGB">
<feFlood flood-opacity="0" result="BackgroundImageFix"/>
<feColorMatrix in="SourceAlpha" type="matrix" values="0 0 0 0 0 0 0 0 0 0 0 0 0 0 0 0 0 0 127 0" result="hardAlpha"/>
<feOffset/>
<feGaussianBlur stdDeviation="8"/>
<feComposite in2="hardAlpha" operator="out"/>
<feColorMatrix type="matrix" values="0 0 0 0 0 0 0 0 0 0 0 0 0 0 0 0 0 0 0.15 0"/>
<feBlend mode="normal" in2="BackgroundImageFix" result="effect1_dropShadow_0_1"/>
<feBlend mode="normal" in="SourceGraphic" in2="effect1_dropShadow_0_1" result="shape"/>
</filter>
<linearGradient id="paint0_linear_0_1" x1="56.5676" y1="35.6862" x2="34.4918" y2="49.1336" gradientUnits="userSpaceOnUse">
<stop stop-color="#009E0B"/>
<stop offset="0.1205" stop-color="#04A00B"/>
<stop offset="0.2454" stop-color="#11A40A"/>
<stop offset="0.3724" stop-color="#25AC09"/>
<stop offset="0.5008" stop-color="#43B708"/>
<stop offset="0.6304" stop-color="#68C607"/>
<stop offset="0.761" stop-color="#96D705"/>
<stop offset="0.8898" stop-color="#CBEB02"/>
<stop offset="1" stop-color="#FFFF00"/>
</linearGradient>
</defs>
</svg>
