<svg width="18" height="18" viewBox="0 0 18 18" fill="none" xmlns="http://www.w3.org/2000/svg">
<path d="M9.17772 17.1467C4.49244 17.1467 0.677734 13.332 0.677734 8.64673C0.677734 3.96144 4.49244 0.146729 9.17772 0.146729C13.863 0.146729 17.6777 3.96144 17.6777 8.64673C17.6777 13.332 13.863 17.1467 9.17772 17.1467ZM9.17772 1.06086C4.995 1.06086 1.59184 4.464 1.59184 8.64673C1.59184 12.8295 4.995 16.2327 9.17772 16.2327C13.3604 16.2327 16.7636 12.8295 16.7636 8.64673C16.7636 4.464 13.3604 1.06086 9.17772 1.06086Z" fill="currentColor"/>
<path fillRule="evenodd" clipRule="evenodd" d="M9.58237 3.11365C6.753 3.11365 4.44994 5.41671 4.44994 8.24609C4.44994 9.2433 4.7309 10.197 5.26907 11.028L4.4895 12.7454C4.41827 12.9037 4.44201 13.0897 4.55676 13.2203C4.64382 13.3232 4.77047 13.3785 4.8971 13.3785C4.93667 13.3785 4.97624 13.3747 5.01581 13.3628L7.16455 12.7732C7.90454 13.1689 8.7395 13.3785 9.58237 13.3785C12.4117 13.3785 14.7148 11.0755 14.7148 8.24609C14.7148 5.41671 12.4117 3.11365 9.58237 3.11365ZM9.58237 12.4803C8.83447 12.4803 8.09447 12.2824 7.44945 11.9025C7.38218 11.8629 7.30306 11.8432 7.22392 11.8432C7.18434 11.8432 7.14475 11.8472 7.10518 11.859L5.70039 12.2429L6.19108 11.1665C6.25835 11.0201 6.23857 10.8499 6.14755 10.7193C5.62521 9.99516 5.3482 9.14041 5.3482 8.24609C5.3482 5.91136 7.24764 4.01193 9.58237 4.01193C11.9171 4.01193 13.8165 5.91136 13.8165 8.24609C13.8165 10.5808 11.9171 12.4803 9.58237 12.4803Z" fill="currentColor"/>
<path fillRule="evenodd" clipRule="evenodd" d="M11.5516 9.013C11.338 8.88637 11.057 8.73988 10.8038 8.84277C10.6099 8.92191 10.4872 9.22666 10.3606 9.38099C10.2972 9.46013 10.2181 9.47195 10.1191 9.43238C9.39103 9.14351 8.83309 8.65681 8.42945 7.98409C8.36218 7.88121 8.37406 7.79812 8.45716 7.69919C8.57983 7.55673 8.73019 7.39448 8.7658 7.20058C8.79746 7.00668 8.70646 6.78112 8.62731 6.61096C8.52443 6.39332 8.40965 6.07668 8.19201 5.95401C7.99019 5.83925 7.72508 5.90266 7.54305 6.04908C7.23044 6.30234 7.08401 6.69801 7.08797 7.08977C7.08797 7.20057 7.10379 7.3114 7.12753 7.4222C7.19085 7.68338 7.30958 7.92471 7.44412 8.15422C7.54701 8.32834 7.6578 8.49455 7.77651 8.65679C8.16827 9.18705 8.65105 9.64613 9.21297 9.99041C9.49392 10.1606 9.79467 10.3148 10.1073 10.4177C10.4595 10.5325 10.7721 10.6552 11.152 10.584C11.5477 10.5088 11.9394 10.2634 12.0977 9.87959C12.1452 9.76484 12.169 9.63814 12.1413 9.51943C12.0859 9.27013 11.7535 9.12379 11.5516 9.00507V9.013Z" fill="currentColor"/>
</svg>
