<svg width="161" height="107" viewBox="0 0 161 107" fill="none" xmlns="http://www.w3.org/2000/svg">
<path d="M134.409 40.5621C134.409 28.5364 124.652 0 112.615 0C100.578 0 90.8206 28.5364 90.8206 40.5621C90.8249 46.3381 93.123 51.8761 97.2098 55.9588C101.297 60.0415 106.838 62.3349 112.615 62.3349C118.392 62.3349 123.933 60.0415 128.02 55.9588C132.107 51.8761 134.405 46.3381 134.409 40.5621Z" fill="#F2F2F2"/>
<path d="M112.615 106.754C112.549 106.754 112.485 106.728 112.439 106.681C112.392 106.634 112.366 106.571 112.366 106.505V37.6996C112.366 37.6335 112.392 37.5701 112.439 37.5234C112.485 37.4767 112.549 37.4504 112.615 37.4504C112.681 37.4504 112.744 37.4767 112.791 37.5234C112.838 37.5701 112.864 37.6335 112.864 37.6996V106.505C112.864 106.571 112.838 106.634 112.791 106.681C112.744 106.728 112.681 106.754 112.615 106.754Z" fill="#DEE2E6"/>
<path d="M112.616 47.2005C112.58 47.2006 112.545 47.193 112.512 47.1781C112.48 47.1633 112.451 47.1417 112.427 47.1146L99.893 32.663C99.8499 32.613 99.8284 32.548 99.8332 32.4822C99.8379 32.4164 99.8686 32.3551 99.9185 32.3119C99.9683 32.2687 100.033 32.247 100.099 32.2516C100.165 32.2562 100.226 32.2867 100.27 32.3364L112.804 46.7881C112.835 46.8242 112.856 46.8685 112.862 46.9158C112.869 46.9631 112.862 47.0113 112.842 47.0547C112.823 47.0982 112.791 47.135 112.751 47.1609C112.71 47.1867 112.664 47.2005 112.616 47.2005Z" fill="#DEE2E6"/>
<path d="M112.615 55.5404C112.566 55.5404 112.517 55.5258 112.476 55.4984C112.435 55.471 112.404 55.4321 112.385 55.3866C112.366 55.3411 112.361 55.291 112.371 55.2426C112.38 55.1943 112.404 55.1499 112.439 55.1151L119.561 47.9944C119.584 47.9712 119.612 47.9529 119.642 47.9404C119.672 47.9278 119.704 47.9214 119.737 47.9214C119.77 47.9214 119.802 47.9278 119.833 47.9404C119.863 47.9529 119.89 47.9712 119.913 47.9944C119.937 48.0175 119.955 48.045 119.967 48.0752C119.98 48.1054 119.986 48.1378 119.986 48.1705C119.986 48.2032 119.98 48.2356 119.967 48.2659C119.955 48.2961 119.937 48.3236 119.913 48.3467L112.791 55.4674C112.768 55.4906 112.741 55.509 112.71 55.5215C112.68 55.534 112.648 55.5405 112.615 55.5404Z" fill="#DEE2E6"/>
<path d="M112.615 82.9486C112.566 82.9486 112.517 82.934 112.476 82.9066C112.435 82.8792 112.404 82.8403 112.385 82.7948C112.366 82.7493 112.361 82.6992 112.371 82.6508C112.38 82.6025 112.404 82.5581 112.439 82.5233L119.561 75.4026C119.608 75.3558 119.671 75.3296 119.737 75.3296C119.803 75.3296 119.867 75.3558 119.913 75.4026C119.96 75.4493 119.986 75.5127 119.986 75.5787C119.986 75.6448 119.96 75.7082 119.913 75.7549L112.791 82.8756C112.768 82.8988 112.741 82.9172 112.71 82.9297C112.68 82.9422 112.648 82.9487 112.615 82.9486Z" fill="#DEE2E6"/>
<path d="M160.751 106.819H0.249226C0.183127 106.819 0.119739 106.793 0.0730002 106.746C0.0262613 106.7 0 106.636 0 106.57C0 106.504 0.0262613 106.441 0.0730002 106.394C0.119739 106.347 0.183127 106.321 0.249226 106.321H160.751C160.817 106.321 160.88 106.347 160.927 106.394C160.974 106.441 161 106.504 161 106.57C161 106.636 160.974 106.7 160.927 106.746C160.88 106.793 160.817 106.819 160.751 106.819Z" fill="#E9ECEF"/>
<path d="M74.672 63.3197C75.0533 63.2344 75.4105 63.0697 75.7185 62.8372C76.0265 62.6047 76.2778 62.31 76.4547 61.9738C76.6316 61.6377 76.7298 61.2683 76.7423 60.8917C76.7549 60.515 76.6815 60.1403 76.5274 59.7939L86.3973 38.3264L80.7512 36.9573L72.8248 58.4897C72.2375 58.7776 71.7803 59.2628 71.5399 59.8535C71.2994 60.4442 71.2923 61.0992 71.52 61.6946C71.7477 62.2899 72.1944 62.7842 72.7753 63.0837C73.3562 63.3832 74.0311 63.4672 74.672 63.3197V63.3197Z" fill="#A07061"/>
<path d="M83.5669 45.0464L78.0756 42.5718C77.9193 42.5014 77.7807 42.3994 77.6691 42.2728C77.5575 42.1461 77.4755 41.9978 77.4288 41.8379C77.3821 41.6781 77.3718 41.5104 77.3985 41.3463C77.4252 41.1822 77.4883 41.0256 77.5835 40.8871L80.9208 36.0349C81.2998 35.2679 81.9792 34.6768 82.8101 34.3911C83.6411 34.1054 84.5557 34.1485 85.3537 34.5108C86.1517 34.8732 86.768 35.5253 87.0675 36.3243C87.367 37.1233 87.3253 38.004 86.9515 38.7734L85.2259 44.331C85.1764 44.4902 85.0919 44.6371 84.9781 44.762C84.8644 44.8868 84.724 44.9866 84.5665 45.0545C84.4091 45.1223 84.2383 45.1568 84.0658 45.1554C83.8933 45.154 83.7231 45.1168 83.5669 45.0464H83.5669Z" fill="#FF6600"/>
<path d="M64.4746 42.2864L70.5287 46.4128C70.6063 46.467 70.6997 46.4962 70.7955 46.4962C70.8913 46.4962 70.9847 46.467 71.0623 46.4128L72.6982 45.2302C72.7526 45.1919 72.7973 45.1423 72.8291 45.0851C72.8608 45.0279 72.8788 44.9645 72.8816 44.8997C72.8844 44.8349 72.872 44.7703 72.8453 44.7108C72.8187 44.6512 72.7784 44.5982 72.7275 44.5556L68.0689 40.5562C68.0077 40.5047 67.9334 40.4697 67.8536 40.4548C67.7738 40.44 67.6913 40.4457 67.6145 40.4715L64.5831 41.5158C64.5052 41.5435 64.4366 41.5911 64.3847 41.6534C64.3328 41.7158 64.2995 41.7905 64.2883 41.8697C64.2772 41.9489 64.2886 42.0295 64.3214 42.1029C64.3542 42.1763 64.4072 42.2397 64.4746 42.2864H64.4746Z" fill="#3F3D56"/>
<path d="M65.0254 41.9656L70.4813 45.6844C70.5087 45.7042 70.542 45.7151 70.5763 45.7154C70.6106 45.7157 70.6441 45.7054 70.6719 45.686L72.1432 44.6225C72.16 44.6109 72.1742 44.5964 72.1851 44.5795C72.1961 44.5627 72.2034 44.5439 72.2067 44.5244C72.2101 44.5048 72.2094 44.4847 72.2046 44.4654C72.1999 44.4461 72.1913 44.4279 72.1792 44.4118C72.1725 44.4031 72.1648 44.3951 72.1563 44.3879L67.9544 40.7804C67.9325 40.7623 67.906 40.7501 67.8776 40.7451C67.8492 40.74 67.8199 40.7423 67.7928 40.7516L65.0622 41.6922C65.0349 41.7023 65.0109 41.7194 64.9928 41.7417C64.9747 41.7639 64.9631 41.7904 64.9594 41.8184C64.9556 41.8463 64.9597 41.8748 64.9714 41.9007C64.983 41.9266 65.0017 41.949 65.0254 41.9656V41.9656Z" fill="white"/>
<path d="M86.6923 100.742L83.5455 100.742L82.0486 90.3071H86.4348L86.6923 100.742Z" fill="#A07061"/>
<path d="M87.2057 102.722C87.2057 103.274 86.7579 103.722 86.2057 103.722L77.5265 103.721C77.4574 103.721 77.4014 103.665 77.4014 103.596C77.4014 103.091 77.5001 102.59 77.6918 102.123C77.8836 101.656 78.1647 101.232 78.5191 100.874C78.8734 100.517 79.2941 100.233 79.7571 100.04C80.2201 99.8461 80.7164 99.7466 81.2175 99.7466H81.2178L86.2058 99.7468C86.7581 99.7468 87.2058 100.195 87.2058 100.747L87.2057 102.722Z" fill="#2F2E41"/>
<path d="M96.4954 100.742L93.3486 100.742L91.8517 90.3071L96.4959 90.3074L96.4954 100.742Z" fill="#A07061"/>
<path d="M97.5291 102.722C97.529 103.274 97.0813 103.722 96.529 103.722L87.8498 103.721C87.7807 103.721 87.7247 103.665 87.7247 103.596C87.7247 103.091 87.8234 102.59 88.0152 102.123C88.207 101.656 88.4881 101.232 88.8424 100.874C89.1968 100.517 89.6175 100.233 90.0805 100.04C90.5435 99.8461 91.0397 99.7466 91.5409 99.7466H91.5411L96.5292 99.7468C97.0815 99.7468 97.5292 100.195 97.5292 100.747L97.5291 102.722Z" fill="#2F2E41"/>
<path d="M96.2588 97.7571C96.2311 97.7571 96.2034 97.7562 96.1756 97.7545L92.6585 97.5189C92.4175 97.5017 92.1889 97.4151 92.0064 97.2717C91.8239 97.1283 91.6971 96.9356 91.6446 96.7222L85.5378 66.3966C85.5176 66.3127 85.4629 66.239 85.3849 66.1902C85.3069 66.1414 85.2113 66.1212 85.1175 66.1338C85.0237 66.1463 84.9386 66.1906 84.8795 66.2577C84.8204 66.3249 84.7917 66.4098 84.7991 66.4953L86.9675 96.3742C86.9796 96.5138 86.9597 96.6542 86.909 96.7865C86.8582 96.9189 86.7778 97.0403 86.6727 97.1432C86.5676 97.246 86.4401 97.3281 86.2982 97.3842C86.1564 97.4403 86.0032 97.4693 85.8484 97.4693H83.1702C82.9443 97.4694 82.7236 97.4078 82.5371 97.2926C82.3505 97.1775 82.2066 97.0141 82.1243 96.8238C75.3888 80.8666 77.8279 49.6002 77.8473 49.2857L78.0968 49.0601L91.5122 51.1557L91.5406 51.1806C96.1243 54.2265 98.1081 89.8966 97.3792 96.682C97.3747 96.9702 97.2572 97.2476 97.0476 97.4647C96.8373 97.6521 96.554 97.7571 96.2588 97.7571Z" fill="#2F2E41"/>
<path d="M79.7694 29.4329C83.1501 29.4329 85.8907 26.7945 85.8907 23.5398C85.8907 20.2851 83.1501 17.6467 79.7694 17.6467C76.3888 17.6467 73.6482 20.2851 73.6482 23.5398C73.6482 26.7945 76.3888 29.4329 79.7694 29.4329Z" fill="#A07061"/>
<path d="M93.8086 56.5819C93.7463 56.5819 93.6842 56.5759 93.6231 56.5639L77.9024 54.6219C77.3395 54.5126 76.9379 53.9343 76.9683 53.2763L78.4728 45.2802C76.479 42.8808 78.363 36.6843 79.5813 35.1176L79.1101 33.8901C78.9887 33.5713 78.9813 33.2226 79.0892 32.8994C79.1818 32.5951 79.3942 32.3376 79.6812 32.1821L86.0613 28.9186C86.6269 28.6292 87.2905 28.9254 87.541 29.5781L88.7922 32.8378L88.773 32.8474C91.7688 34.3933 94.4233 35.9227 92.4295 44.0805L94.9292 55.347C94.9208 55.7023 94.7721 56.0411 94.5133 56.2945C94.3264 56.4752 94.0735 56.5783 93.8086 56.5819Z" fill="#365C7D"/>
<path d="M71.6276 43.3707C71.728 43.4617 71.8209 43.5601 71.9053 43.6652L84.2358 42.8449L85.5586 40.2498L89.8876 41.6598L88.0096 46.473C87.8579 46.8619 87.5793 47.1929 87.2155 47.4163C86.8518 47.6397 86.4226 47.7435 85.9924 47.7121L71.9709 46.6884C71.6605 47.1034 71.2262 47.4177 70.7257 47.5893C70.2253 47.7609 69.6824 47.7818 69.1693 47.6492C68.6562 47.5165 68.1973 47.2366 67.8534 46.8467C67.5096 46.4568 67.2973 45.9754 67.2446 45.4664C67.1919 44.9575 67.3014 44.4452 67.5586 43.9976C67.8157 43.5501 68.2083 43.1885 68.6841 42.961C69.16 42.7335 69.6964 42.6508 70.2222 42.724C70.748 42.7972 71.2382 43.0228 71.6276 43.3707Z" fill="#A07061"/>
<path d="M84.0126 42.2756C83.9512 42.1322 83.9227 41.9776 83.929 41.8226C83.9352 41.6676 83.9762 41.5157 84.049 41.3772L86.5917 36.5426C86.8521 35.7894 87.4121 35.1664 88.1488 34.8101C88.8856 34.4537 89.7391 34.3932 90.5222 34.6417C91.3052 34.8903 91.954 35.4276 92.3262 36.1359C92.6985 36.8442 92.7638 37.6657 92.5079 38.4202L91.5285 43.7745C91.5006 43.9273 91.4387 44.0725 91.3472 44.2002C91.2557 44.328 91.1367 44.4352 90.9982 44.5146C90.8598 44.5941 90.7052 44.6439 90.545 44.6606C90.3848 44.6773 90.2227 44.6606 90.0697 44.6116L84.6955 42.8891C84.5425 42.8402 84.4023 42.76 84.2845 42.6541C84.1666 42.5483 84.0739 42.4192 84.0126 42.2756Z" fill="#365C7D"/>
<path d="M83.2075 18.8858C85.9604 18.8858 88.1921 16.7373 88.1921 14.0871C88.1921 11.4368 85.9604 9.28833 83.2075 9.28833C80.4547 9.28833 78.223 11.4368 78.223 14.0871C78.223 16.7373 80.4547 18.8858 83.2075 18.8858Z" fill="#2F2E41"/>
<path d="M73.9753 24.2675C73.4884 24.317 72.9705 24.3616 72.5324 24.1511C72.2981 24.0231 72.0984 23.8437 71.9495 23.6275C71.8007 23.4113 71.7069 23.1643 71.6758 22.9067C70.7471 16.966 75.9941 17.4547 76.6148 17.1974C77.032 17.0244 77.3393 16.6763 77.7121 16.4265C78.5276 15.8801 79.5856 15.8401 80.5789 15.8195C81.7582 15.795 82.9802 15.7781 84.0625 16.2295C85.0357 16.6685 85.8444 17.3861 86.378 18.2842C86.906 19.1786 87.293 20.1435 87.5261 21.1475C87.8262 22.296 88.0303 23.511 87.7214 24.6573C87.4664 25.5287 86.9349 26.3015 86.2012 26.8676C85.4674 27.4337 84.5682 27.7648 83.6293 27.8145C84.0321 26.4453 83.153 24.9274 81.849 24.2574C80.7969 23.7592 79.5996 23.6219 78.4554 23.8684C77.7133 24.0131 76.9607 24.1033 76.2044 24.1382C75.4622 24.165 74.5711 24.2069 73.9753 24.2675Z" fill="#2F2E41"/>
</svg>
